<svg width="26" height="46" viewBox="0 0 26 46" fill="none" xmlns="http://www.w3.org/2000/svg">
<path d="M19.6435 35.5415C21.222 35.5415 22.5017 36.8211 22.5017 38.3996V39.5494C22.5017 40.9386 21.8951 42.2587 20.841 43.1637C18.8525 44.8709 16.0066 45.7052 12.3355 45.7052C8.66502 45.7052 5.82109 44.8712 3.83581 43.1643C2.78322 42.2594 2.17773 40.9403 2.17773 39.5522V38.3996C2.17773 36.8211 3.45737 35.5415 5.03587 35.5415H19.6435ZM12.2066 20.3075L12.3359 20.2988C12.8182 20.2988 13.2169 20.6572 13.2799 21.1223L13.2886 21.2515L13.2876 22.203L17.7342 22.2036C19.3127 22.2036 20.5923 23.4833 20.5923 25.0618V30.7839C20.5923 32.3624 19.3127 33.642 17.7342 33.642H6.9368C5.35829 33.642 4.07866 32.3624 4.07866 30.7839V25.0618C4.07866 23.4833 5.35829 22.2036 6.9368 22.2036L11.3822 22.203L11.3832 21.2515C11.3832 20.7692 11.7416 20.3706 12.2066 20.3075ZM9.47646 26.0145C8.60002 26.0145 7.88951 26.725 7.88951 27.6014C7.88951 28.4779 8.60002 29.1884 9.47646 29.1884C10.3529 29.1884 11.0634 28.4779 11.0634 27.6014C11.0634 26.725 10.3529 26.0145 9.47646 26.0145ZM15.1835 26.0145C14.3071 26.0145 13.5966 26.725 13.5966 27.6014C13.5966 28.4779 14.3071 29.1884 15.1835 29.1884C16.06 29.1884 16.7705 28.4779 16.7705 27.6014C16.7705 26.725 16.06 26.0145 15.1835 26.0145Z" fill="white"/>
<path d="M7.38281 5.27344C4.47038 5.27344 2.10938 7.63444 2.10938 10.5469C2.10938 12.7093 3.41096 14.5678 5.27344 15.3816V18.1934H20.0391V15.3816C21.9015 14.5678 23.2031 12.7093 23.2031 10.5469C23.2031 7.63444 20.8421 5.27344 17.9297 5.27344C17.6655 5.27344 17.4058 5.29286 17.152 5.33038C16.5168 3.45733 14.7439 2.10938 12.6562 2.10938C10.5686 2.10938 8.79568 3.45733 8.1605 5.33038C7.90671 5.29286 7.64703 5.27344 7.38281 5.27344Z" fill="white"/>
<path d="M20.0372 19.7754H5.27515C5.28589 21.2487 5.36136 22.0555 5.89119 22.5853C6.509 23.2031 7.50337 23.2031 9.49211 23.2031H15.8202C17.809 23.2031 18.8033 23.2031 19.4212 22.5853C19.951 22.0555 20.0264 21.2487 20.0372 19.7754Z" fill="white"/>
</svg>
