<svg width="24" height="24" viewBox="0 0 24 24" fill="none" xmlns="http://www.w3.org/2000/svg">
<path d="M6 3.54098C2.6863 3.54098 0 6.18324 0 9.44262C0 11.8626 1.48092 13.9425 3.6 14.8532V18H20.4V14.8532C22.5191 13.9425 24 11.8626 24 9.44262C24 6.18324 21.3137 3.54098 18 3.54098C17.6994 3.54098 17.404 3.56273 17.1151 3.60471C16.3925 1.50853 14.3753 0 12 0C9.62472 0 7.60753 1.50853 6.88483 3.60471C6.59608 3.56273 6.30062 3.54098 6 3.54098Z" fill="#2E3E5C"/>
<path d="M19.9998 20H3.99976C4.0114 21.7193 4.0932 22.6608 4.66746 23.2791C5.33709 24 6.41484 24 8.57036 24H15.4292C17.5847 24 18.6624 24 19.3321 23.2791C19.9064 22.6608 19.9881 21.7193 19.9998 20Z" fill="#2E3E5C"/>
</svg>
