<svg width="104" height="107" viewBox="0 0 104 107" fill="none" xmlns="http://www.w3.org/2000/svg">
<circle cx="52.0672" cy="55.6018" r="51.3982" fill="#27AE60"/>
<path d="M41.3457 63.0895L44.781 62.8066L50.4393 62.2408L61.9983 62.8066L69.1115 72.8298L68.4518 77.7928C68.4518 77.7928 68.7476 77.7854 68.7958 77.7928C69.3687 77.882 69.9412 77.9742 70.5134 78.0678C70.622 78.0856 70.7306 78.1032 70.8392 78.1209C77.3249 79.1733 77.3249 79.1733 78.9196 81.0041C79.1176 81.3976 79.1354 81.718 79.0004 82.1358C78.0652 83.6745 75.7261 84.1809 74.1139 84.5819C72.6379 84.93 71.1527 85.2091 69.6542 85.4398C69.5237 85.46 69.5237 85.46 69.3905 85.4807C64.9352 86.1697 60.4777 86.6789 55.9683 86.7887C55.8656 86.7912 55.8656 86.7912 55.7608 86.7938C54.2385 86.8304 52.7169 86.8405 51.1942 86.8241C51.1292 86.8234 51.0641 86.8227 50.9972 86.8219C44.746 86.7503 38.2957 86.2289 32.1986 84.8032C32.0576 84.7703 32.0576 84.7703 31.9138 84.7367C27.6448 83.7206 27.6448 83.7206 26.6212 82.3783C26.4151 82.0346 26.4068 81.7191 26.4595 81.3275C26.875 80.4244 27.9917 79.9599 28.8714 79.6229C31.7417 78.5709 35.3385 77.7109 38.4227 77.7709C38.3803 77.688 38.3803 77.688 38.3371 77.6035C38.0408 76.9471 37.9736 75.6509 38.0315 75.2548L38.1398 74.4961L37.8973 73.6878C37.8973 73.6878 37.9349 69.8515 37.7356 68.9995C37.4277 67.6999 41.3457 63.0895 41.3457 63.0895ZM66.3098 80.1958C66.1888 80.251 66.1096 80.3546 66.1481 80.6C66.536 80.7333 66.9252 80.8587 67.3192 80.9729C68.9215 81.4545 69.4016 81.5805 70.0281 82.2166C70.1084 82.5111 70.1374 82.699 70.0382 82.9896C68.1918 85.1075 63.2009 85.1319 60.5707 85.3691C60.5054 85.3752 60.4401 85.3812 60.3729 85.3875C55.276 85.8584 49.9858 85.823 44.8893 85.3691C44.7881 85.3603 44.7881 85.3603 44.685 85.3513C38.7029 84.8266 38.7029 84.8266 36.2958 83.6665C36.2445 83.642 36.1932 83.6174 36.1404 83.5921C35.7964 83.4103 35.6172 83.2024 35.4319 82.8633C35.3927 82.5891 35.4071 82.4344 35.5187 82.1816C35.7216 81.9112 35.9616 81.7914 36.2604 81.6508C36.3177 81.6231 36.375 81.5954 36.434 81.5669C37.3288 81.1454 38.2638 80.8814 39.231 80.6808C39.231 80.5741 39.231 80.4674 39.231 80.3575C39.1358 80.2444 39.1358 80.2444 38.8676 80.2609C38.485 80.2661 38.1384 80.347 37.771 80.4484C37.7043 80.4665 37.6376 80.4846 37.5689 80.5032C36.5099 80.7997 35.2421 81.17 34.5427 82.072C34.402 82.3238 34.4112 82.5035 34.4619 82.7824C34.7496 83.44 35.4828 83.7605 36.1089 84.0404C38.5396 84.9867 41.1805 85.2737 43.7576 85.5307C43.8822 85.5438 43.8822 85.5438 44.0093 85.5572C46.8007 85.85 49.6161 85.8849 52.4201 85.8798C52.6688 85.8793 52.9174 85.8791 53.166 85.879C55.7482 85.8763 58.32 85.8359 60.894 85.6116C60.9639 85.6055 61.0338 85.5995 61.1058 85.5932C67.2465 85.0861 69.0372 84.6251 70.7758 83.1967C70.9805 82.9315 71.0888 82.7168 71.0505 82.3783C70.8672 81.8131 70.3916 81.5114 69.8866 81.2466C68.8052 80.7137 67.5128 80.3005 66.3098 80.1958Z" fill="#FCFDFC"/>
<path d="M34.5943 61.18C34.696 61.1798 34.696 61.1798 34.7996 61.1797C35.0291 61.1795 35.2586 61.1798 35.488 61.1802C35.6532 61.1802 35.8184 61.1801 35.9836 61.18C36.4394 61.1798 36.8952 61.1801 37.3511 61.1805C37.8419 61.1809 38.3327 61.1808 38.8236 61.1807C39.6746 61.1807 40.5257 61.1809 41.3767 61.1814C42.2695 61.1819 43.1624 61.1822 44.0552 61.1823C44.1107 61.1823 44.1661 61.1823 44.2233 61.1823C44.5049 61.1823 44.7865 61.1823 45.0682 61.1823C47.0643 61.1825 49.0605 61.1831 51.0567 61.1838C52.9963 61.1846 54.9359 61.1851 56.8754 61.1855C56.9352 61.1855 56.995 61.1855 57.0565 61.1855C57.6566 61.1856 58.2567 61.1857 58.8568 61.1858C60.0794 61.186 61.302 61.1863 62.5245 61.1865C62.5807 61.1865 62.6369 61.1865 62.6949 61.1865C66.4504 61.1873 70.408 61.1886 74.1636 61.1899C74.2444 61.19 74.1851 61.3566 74.0423 61.5941C73.8996 61.8315 73.8996 61.8315 73.6988 62.0791C73.4675 62.3679 73.2593 62.6491 73.0724 62.9682C73.1661 62.9678 73.2598 62.9674 73.3563 62.967C73.7073 62.9655 74.0584 62.9646 74.4094 62.9638C74.5607 62.9634 74.712 62.9628 74.8633 62.9621C75.082 62.9611 75.3007 62.9607 75.5194 62.9603C75.586 62.9599 75.6525 62.9595 75.7211 62.9591C76.9705 62.959 76.9705 62.959 77.3312 63.1855C77.4373 63.3724 77.4373 63.3724 77.4373 63.625C77.3565 63.8574 77.3565 63.8574 77.2316 63.9512C76.9449 64.0492 76.6633 64.0432 76.3637 64.044C76.2292 64.046 76.0947 64.0481 75.9602 64.0502C75.7499 64.0525 75.5396 64.0544 75.3293 64.0559C73.6759 64.0525 72.7086 64.4636 72.264 64.8274C71.9003 65.1911 71.692 65.87 71.5871 66.5147C71.5533 66.6973 71.5193 66.8798 71.4851 67.0623C71.4672 67.1593 71.4494 67.2564 71.431 67.3565C71.0696 69.2897 70.5725 71.1853 70.0489 73.0798C70.0015 73.2515 69.9542 73.4231 69.907 73.5948C68.8097 77.5774 68.8097 77.5774 68.5457 77.8414C68.3637 77.8361 68.1817 77.825 68.0001 77.811C67.8507 77.8001 67.8507 77.8001 67.6983 77.7889C67.4632 77.7654 67.2401 77.7315 67.0099 77.6797C67.0334 77.6108 67.0334 77.6108 67.0573 77.5404C67.1013 77.4098 67.1448 77.279 67.1877 77.148C67.239 76.9927 67.2932 76.8384 67.3484 76.6844C67.5105 75.9487 67.5096 74.9957 67.1394 74.3214C67.0571 74.1986 66.9721 74.0776 66.8836 73.9592C66.6649 73.6591 66.6649 73.6591 66.6058 73.4764C66.6756 73.2765 66.6756 73.2765 66.7927 73.0672C67.0938 72.5186 67.1564 72.0803 67.0908 71.4556C66.9042 70.8288 66.6361 70.247 66.0854 69.8642C66.0405 69.8322 65.9956 69.8003 65.9493 69.7673C65.7707 69.6615 65.5874 69.5885 65.3933 69.5156C65.3856 69.4128 65.3856 69.4128 65.3778 69.3079C65.284 68.4095 65.0342 67.5583 64.3526 66.9189C63.8952 66.5697 63.4559 66.3731 62.8824 66.3379C62.6785 66.3045 62.6785 66.3045 62.4833 66.2015C62.2859 65.9086 62.1382 65.6074 61.9867 65.2893C61.6224 64.5309 60.9743 64.2034 60.2083 63.9275C59.8815 63.854 59.5968 63.8485 59.2638 63.8514C58.4395 63.8546 57.9707 63.7928 57.348 63.229C56.7613 62.6999 55.9424 62.5356 55.1731 62.5439C55.1155 62.5432 55.0579 62.5426 54.9986 62.542C54.428 62.544 53.9237 62.6754 53.3948 62.8925C53.3265 62.9201 53.2583 62.9477 53.1879 62.9761C53.0295 63.036 53.0664 63.0491 52.9047 63.1299C52.743 63.2107 52.4365 63.0959 52.157 62.9379C51.2734 62.4799 50.2391 62.3996 49.2824 62.6954C48.7798 62.8877 48.256 63.123 47.8769 63.5142C47.58 63.8124 47.3835 63.9755 46.9525 63.9793C46.8028 63.9711 46.6532 63.9608 46.5038 63.9483C45.501 63.9076 44.7558 64.0849 43.9674 64.7503C43.623 65.0982 43.3666 65.4769 43.2352 65.9489C43.0836 66.2015 43.0836 66.2015 42.879 66.276C42.7088 66.3147 42.538 66.3512 42.3669 66.3856C41.6983 66.5398 41.1549 66.9563 40.7395 67.4948C40.3851 68.1275 40.3851 68.1275 40.2602 68.8248C40.2651 69.0785 40.2516 69.2732 40.1737 69.5156C39.9661 69.6989 39.7529 69.8195 39.5106 69.9526C38.9701 70.2606 38.7217 70.7164 38.5324 71.2971C38.3608 72.028 38.4552 72.6526 38.7995 73.3148C38.8529 73.3948 38.9062 73.4748 38.9612 73.5572C38.9336 73.8329 38.5946 74.0634 38.4357 74.2847C38.1124 74.6081 38.0316 75.1739 38.0316 75.2951C37.2233 72.7489 36.7243 70.4856 36.2684 68.0809C36.249 67.9784 36.2296 67.8759 36.2096 67.7703C36.1732 67.5774 36.1369 67.3845 36.1006 67.1915C35.8537 65.6018 35.2429 64.6657 34.8387 64.4232C34.4346 64.1807 33.6256 64.0896 32.9692 64.08C32.8443 64.0773 32.7194 64.0746 32.5945 64.0719C32.4001 64.0681 32.2058 64.0645 32.0114 64.0613C31.822 64.0581 31.6328 64.054 31.4435 64.0497C31.3859 64.049 31.3282 64.0483 31.2689 64.0476C30.9217 64.0391 30.4199 64.0191 30.3121 63.8574C30.2044 63.6957 30.1868 63.43 30.3121 63.2107C30.4738 62.9278 31.5356 62.9571 32.0879 62.9603C32.1996 62.9605 32.1996 62.9605 32.3135 62.9607C32.549 62.9611 32.7845 62.9622 33.02 62.9632C33.1806 62.9636 33.3412 62.964 33.5018 62.9643C33.8936 62.9652 34.2853 62.9666 34.6771 62.9682C34.6265 62.8786 34.5759 62.7889 34.5238 62.6966C34.4954 62.6461 34.4669 62.5957 34.4376 62.5437C34.3373 62.3747 34.2212 62.2255 34.0961 62.074C33.8922 61.8106 33.6262 61.2708 33.7879 61.2303C33.9496 61.1899 33.9091 61.1495 34.5943 61.18Z" fill="#654321"/>
<path d="M56.3891 63.8363C56.9549 64.1344 57.5036 64.5677 57.7951 65.1507C57.8404 65.1332 57.8856 65.1157 57.9322 65.0977C58.7268 64.8218 59.5857 64.7599 60.3616 65.1249C60.8787 65.4283 61.2427 65.7701 61.4642 66.3345C61.5452 66.6478 61.5339 66.9303 61.5134 67.2524C61.578 67.2477 61.6426 67.243 61.7092 67.2382C62.464 67.2072 63.1161 67.3083 63.712 67.8046C64.2028 68.3263 64.3869 68.8574 64.3672 69.5687C64.3335 69.8275 64.2384 70.0241 64.1001 70.2432C64.1667 70.2515 64.2334 70.2598 64.3021 70.2684C65.01 70.4075 65.5257 70.6744 65.9541 71.2687C66.1086 71.7501 66.1453 72.2807 65.9137 72.7439C65.428 73.3541 64.8394 73.392 64.1001 73.4765C64.0725 73.629 64.0725 73.629 64.0445 73.7846C64.029 73.8704 64.029 73.8704 64.0132 73.958C64.0047 74.1288 64.0047 74.1288 64.1155 74.2643C64.3026 74.394 64.4094 74.393 64.6356 74.3858C64.7069 74.3844 64.7783 74.3829 64.8519 74.3814C65.0592 74.3664 65.2549 74.3325 65.459 74.2949C65.6378 74.2722 65.6378 74.2722 65.7975 74.2848C66.1674 74.6153 66.3428 74.963 66.3905 75.4531C66.3991 76.2884 66.2915 76.8825 65.7167 77.5181C64.958 78.0327 64.2772 78.1736 63.3726 78.1647C63.3493 78.4113 63.3394 78.6462 63.3726 78.8922C63.5952 79.1292 63.8085 79.1491 64.1203 79.16C64.5025 79.1478 64.863 79.0707 65.2317 78.9731C65.3166 79.8083 65.0538 80.5543 64.5648 81.2313C64.0104 81.881 63.315 82.2011 62.4834 82.368C62.2665 82.3778 62.0541 82.3741 61.8368 82.368C61.8288 82.2812 61.8209 82.1944 61.8128 82.105C61.8006 81.9889 61.7884 81.8728 61.7761 81.7567C61.7711 81.6998 61.7661 81.6428 61.761 81.5842C61.7134 81.1544 61.5865 80.872 61.3518 80.5089C61.1901 80.5054 61.0284 80.5056 60.8668 80.5089C60.7524 80.6043 60.7524 80.6043 60.7837 80.8754C60.7868 81.0578 60.791 81.2401 60.7962 81.4225C60.8084 82.2417 60.5622 82.8508 60.0584 83.4997C59.3592 84.2018 58.3083 84.484 57.3415 84.5004C56.1254 84.498 55.2575 84.2387 54.3446 83.4037C53.3258 82.3258 53.3129 80.9657 53.3142 79.5744C53.3134 79.4077 53.3126 79.241 53.3117 79.0742C53.3096 78.624 53.309 78.1738 53.3088 77.7236C53.3086 77.4422 53.3081 77.1608 53.3075 76.8793C53.3052 75.8972 53.3043 74.9151 53.3044 73.933C53.3046 73.0177 53.302 72.1024 53.2982 71.1871C53.295 70.4004 53.2937 69.6137 53.2939 68.8269C53.2939 68.3574 53.2933 67.8879 53.2907 67.4183C53.2883 66.9774 53.2883 66.5366 53.2901 66.0957C53.2903 65.9339 53.2898 65.772 53.2883 65.6101C53.2864 65.3894 53.2876 65.1688 53.2894 64.9481C53.2882 64.8839 53.2869 64.8197 53.2856 64.7535C53.2901 64.5176 53.2999 64.3229 53.4517 64.1346C54.264 63.4363 55.4367 63.4293 56.3891 63.8363Z" fill="#D8A0A6"/>
<path d="M50.4444 63.6654C50.5055 63.6643 50.5666 63.6632 50.6295 63.662C51.2421 63.6671 52.1368 63.9787 52.2177 64.2616C52.2985 64.5445 52.2713 64.6869 52.2673 64.923C52.2678 64.9903 52.2683 65.0575 52.2687 65.1268C52.2698 65.3526 52.2679 65.5782 52.2661 65.804C52.2663 65.9657 52.2666 66.1275 52.2671 66.2892C52.2679 66.729 52.2662 67.1687 52.264 67.6085C52.262 68.069 52.2623 68.5295 52.2622 68.9901C52.2619 69.7642 52.2599 70.5383 52.257 71.3124C52.2537 72.2059 52.2522 73.0994 52.252 73.9929C52.2517 74.9452 52.2501 75.8974 52.2482 76.8497C52.2477 77.1233 52.2474 77.397 52.2471 77.6707C52.2466 78.1022 52.2453 78.5337 52.2433 78.9652C52.2427 79.1231 52.2424 79.2809 52.2424 79.4387C52.2417 80.8839 52.1893 82.2242 51.1466 83.338C50.7619 83.6895 50.345 83.929 49.8735 84.1463C49.7744 84.1965 49.7744 84.1965 49.6733 84.2476C48.8397 84.618 47.6671 84.6261 46.812 84.3054C46.7553 84.2796 46.6986 84.2537 46.6402 84.2271C46.5785 84.1996 46.5169 84.1721 46.4533 84.1438C45.6477 83.741 45.1439 83.133 44.8619 82.2871C44.8519 82.1635 44.8457 82.0395 44.842 81.9155C44.8394 81.8441 44.8367 81.7726 44.834 81.6991C44.829 81.5486 44.8244 81.3981 44.8201 81.2475C44.8173 81.1762 44.8146 81.1049 44.8117 81.0314C44.8097 80.9661 44.8077 80.9007 44.8056 80.8334C44.7948 80.6522 44.7948 80.6522 44.6194 80.5088C44.4195 80.4974 44.4195 80.4974 44.2153 80.5897C43.8872 81.0089 43.8018 81.3354 43.7656 81.8577C43.7589 81.9531 43.7521 82.0484 43.7451 82.1466C43.7378 82.2562 43.7378 82.2562 43.7303 82.368C42.9222 82.4408 42.2307 82.272 41.5611 81.8034C40.8748 81.2222 40.4232 80.5078 40.2545 79.6197C40.2384 79.3993 40.2422 79.1944 40.2545 78.973C40.3278 78.9997 40.4012 79.0264 40.4768 79.0539C40.9683 79.1933 41.5514 79.2463 42.0202 79.0273C42.0777 78.9827 42.1352 78.9381 42.1945 78.8922C42.2257 78.6368 42.2293 78.4768 42.1136 78.2455C41.9528 78.2271 41.7917 78.2098 41.6301 78.1986C40.9492 78.1516 40.3708 78.0825 39.8503 77.5989C39.2996 76.9417 39.1334 76.3465 39.2037 75.4972C39.3006 75.0319 39.4875 74.664 39.7695 74.2848C39.8745 74.2981 39.9796 74.3114 40.0878 74.3252C40.7726 74.417 40.7726 74.417 41.4316 74.2747C41.5687 74.1215 41.5687 74.1215 41.5832 73.8755C41.5715 73.7972 41.5598 73.7188 41.5478 73.6381C41.3024 73.4745 41.2435 73.4589 40.9668 73.4461C40.4498 73.3965 40.0378 73.2211 39.6937 72.8247C39.4384 72.4611 39.3931 72.1334 39.4462 71.6981C39.6059 71.1304 39.9944 70.7718 40.497 70.4856C40.7895 70.3794 41.081 70.303 41.3861 70.2431C41.3595 70.1815 41.3328 70.1198 41.3053 70.0562C41.1644 69.5366 41.1277 69.0106 41.3659 68.5154C41.4241 68.4162 41.4845 68.3183 41.5478 68.2223C41.5945 68.1507 41.6412 68.079 41.6893 68.0051C42.1072 67.5755 42.6428 67.2658 43.2484 67.2432C43.4902 67.2424 43.7312 67.2453 43.9728 67.2524C43.9759 67.1761 43.9759 67.1761 43.9791 67.0983C44.0259 66.3912 44.1978 65.9459 44.7104 65.4488C45.3105 64.9513 45.9335 64.8628 46.699 64.8782C47.1117 64.925 47.4756 65.0622 47.8527 65.2316C47.8757 65.1699 47.8988 65.1082 47.9225 65.0446C48.1755 64.4464 48.7045 64.038 49.2925 63.7917C49.6723 63.6772 50.0507 63.6701 50.4444 63.6654Z" fill="#D8A0A6"/>
<path d="M44.1803 18.1579C44.3619 18.2949 44.5312 18.4389 44.7 18.5914C44.7496 18.6317 44.7992 18.672 44.8503 18.7136C45.5056 19.2892 45.9182 20.2374 46.0108 21.0986C46.0905 22.4553 45.7319 23.5589 44.8313 24.5881C44.708 24.719 44.5835 24.8488 44.4575 24.9771C44.4078 25.0288 44.3581 25.0805 44.3069 25.1338C42.8926 26.4905 40.7713 26.5239 38.9286 26.5504C35.5548 26.5296 33.5856 27.0384 32.656 28.0488C31.7264 29.0592 31.1751 30.8713 31.2648 32.5389C31.3542 33.5753 31.7099 34.5543 32.4893 35.2716C34.5981 36.953 37.8096 37.038 40.3676 37.2276C40.4619 37.2347 40.5562 37.2417 40.6534 37.2489C40.8289 37.2616 41.0044 37.2738 41.18 37.2852C42.4856 37.3758 42.4856 37.3758 42.9267 37.6728C43.2585 38.1759 43.1719 38.8092 43.1036 39.3855C43.0975 39.4482 43.0915 39.5109 43.0852 39.5756C43.0343 40.0277 42.9276 40.3294 42.5984 40.6586C42.3639 40.7374 42.1474 40.7503 41.9012 40.7495C41.8384 40.7497 41.7757 40.7499 41.7111 40.7502C41.4882 40.7404 41.2692 40.721 41.0473 40.6983C40.9745 40.6909 40.9016 40.6835 40.8266 40.6759C40.7711 40.6702 40.7156 40.6645 40.6584 40.6586C40.5575 41.7554 40.4604 42.8525 40.3673 43.95C40.3264 44.4303 40.2847 44.9106 40.2431 45.3908C40.2068 45.8093 40.1709 46.2278 40.1358 46.6464C40.1012 47.0568 40.0658 47.4671 40.0298 47.8774C40.0164 48.0322 40.0033 48.1871 39.9905 48.3419C39.9726 48.5579 39.9536 48.7738 39.9344 48.9896C39.9295 49.0522 39.9245 49.1148 39.9195 49.1794C39.874 49.669 39.805 50.2419 39.4459 50.6009C38.6451 50.881 37.45 50.7095 36.6774 50.3989C36.4551 50.2776 36.4551 50.2776 36.3743 50.1159C36.3288 49.3424 36.4082 48.5725 36.4867 47.8037C36.4986 47.6831 36.5105 47.5625 36.5224 47.4419C36.5474 47.1895 36.5727 46.9372 36.5983 46.6848C36.6301 46.3706 36.6613 46.0562 36.6923 45.7419C36.8226 44.4204 36.9621 43.1001 37.1157 41.7811C37.126 41.6916 37.126 41.6916 37.1365 41.6002C37.1559 41.4328 37.1756 41.2654 37.1955 41.098C37.2067 41.0031 37.2179 40.9081 37.2294 40.8103C37.2634 40.5778 37.2634 40.5778 37.3443 40.3353C37.2575 40.3322 37.1707 40.3292 37.0812 40.3261C36.9651 40.3208 36.8491 40.3154 36.733 40.31C36.676 40.3082 36.6191 40.3063 36.5604 40.3045C36.1513 40.2837 35.846 40.2108 35.4851 40.0119C35.3305 39.7764 35.3069 39.6176 35.3402 39.341C35.3476 39.2753 35.3551 39.2096 35.3628 39.1419C35.3758 39.0399 35.3758 39.0399 35.3891 38.9358C35.4008 38.8353 35.4008 38.8353 35.4127 38.7327C35.4577 38.3499 35.5099 37.9683 35.566 37.587C35.5135 37.5793 35.4611 37.5716 35.4071 37.5637C33.3389 37.2551 31.3878 36.7583 30.0618 34.9921C29.2809 33.8048 28.9452 32.5064 28.6952 31.1204C28.5624 31.6457 28.5023 32.13 28.5032 32.6714C28.5033 32.7451 28.5033 32.8189 28.5033 32.8949C28.5148 33.5838 28.6273 34.2345 28.9485 34.8535C29.0185 35.0003 29.0185 35.0003 29.0185 35.2428C28.1962 35.1276 27.5991 34.343 27.1244 33.7155C26.2473 32.4177 26.0526 30.6724 26.323 29.1533C26.7157 27.5453 27.6646 26.2018 29.0691 25.3207C30.4735 24.5468 32.1153 24.3752 33.6919 24.3781C33.9067 24.3785 34.1213 24.3773 34.336 24.3758C34.8684 24.3724 35.4008 24.3715 35.9332 24.3705C36.386 24.3695 36.8387 24.3676 37.2914 24.3644C37.5006 24.3634 37.7097 24.3637 37.9188 24.3641C38.9708 24.3606 40.0107 24.2874 40.9514 23.7697C41.0306 23.7292 41.0306 23.7292 41.1115 23.6878C42.0016 23.2212 42.4507 22.5246 42.76 21.5822C42.9476 20.8162 42.8642 20.0673 42.497 19.3685C42.0723 18.6868 41.513 18.2686 40.8125 17.893C40.7616 17.8567 40.7108 17.8204 40.6584 17.7831C40.6584 17.7031 40.6584 17.623 40.6584 17.5406C41.7848 17.2402 43.2137 17.5424 44.1803 18.1579Z" fill="#FEFEFD"/>
<path d="M56.5019 29.6654C56.5566 29.706 56.6113 29.7467 56.6677 29.7885C57.2644 30.2673 57.5819 30.8283 57.7851 31.5599C57.8751 31.8757 57.8751 31.8757 58.0863 32.1106C58.2569 32.1724 58.4267 32.2113 58.6035 32.252C59.4448 32.5622 60.2656 32.9324 60.9072 33.5706C61.5754 34.1864 62.7808 34.0917 63.6537 34.1747C63.8895 34.1972 64.1252 34.2202 64.3609 34.2432C65.0304 34.3087 65.6999 34.3734 66.3695 34.4376C66.7811 34.4771 67.1925 34.5172 67.604 34.5577C67.7593 34.5728 67.9147 34.5877 68.07 34.6024C71.1313 34.8917 71.1313 34.8917 72.1249 35.9526C72.582 36.5413 72.7608 37.1097 72.7593 37.8446C72.7595 37.9458 72.7597 38.047 72.7599 38.1512C72.7491 38.3953 72.7491 38.3953 72.6683 38.4761C72.4333 38.4742 72.2013 38.4662 71.9667 38.4538C71.8914 38.45 71.8161 38.4462 71.7386 38.4423C70.7263 38.3868 69.7171 38.2929 68.7076 38.2014C68.4127 38.1748 68.1179 38.1486 67.823 38.1223C67.318 38.0772 66.813 38.0318 66.308 37.9863C65.5766 37.9204 64.8452 37.855 64.1138 37.7897C61.66 37.5705 59.2065 37.3491 56.7535 37.1206C56.0331 37.0536 55.3127 36.9867 54.5922 36.9201C54.461 36.908 54.4611 36.908 54.3272 36.8956C50.2807 36.5218 46.2292 36.223 42.1764 35.9263C40.7275 35.8201 39.2787 35.7123 37.8306 35.5962C37.624 35.5798 37.4174 35.5636 37.2108 35.5477C36.9407 35.5269 36.6706 35.5052 36.4006 35.4831C36.3244 35.4774 36.2482 35.4717 36.1697 35.4659C35.6657 35.423 35.6657 35.423 35.4855 35.2428C35.4142 34.4966 35.7791 33.8078 36.2291 33.2403C36.8816 32.5405 37.7403 32.0517 38.7088 31.9894C38.8229 31.9891 38.9371 31.99 39.0512 31.9917C39.114 31.9922 39.1768 31.9927 39.2415 31.9933C40.018 32.0049 40.7905 32.0694 41.564 32.1333C41.7237 32.1461 41.8834 32.1587 42.043 32.1714C42.4586 32.2044 42.8742 32.238 43.2897 32.2718C43.9577 32.3261 44.6257 32.3795 45.2937 32.4327C45.5256 32.4512 45.7575 32.4701 45.9894 32.4891C46.1317 32.5005 46.2741 32.512 46.4164 32.5234C46.5119 32.5314 46.5119 32.5314 46.6094 32.5395C47.2442 32.5899 47.7021 32.6121 48.2621 32.2722C49.097 31.7972 49.9796 31.5903 50.9245 31.4437C50.9409 31.3776 50.9409 31.3776 50.9576 31.3101C51.1934 30.4841 51.7543 29.825 52.4912 29.3901C53.7939 28.7049 55.3045 28.7514 56.5019 29.6654Z" fill="#654321"/>
<path d="M48.4781 38.0852C48.7504 38.4803 48.7747 38.9953 48.8122 39.4604C48.824 39.593 48.8358 39.7256 48.8476 39.8581C48.8566 39.963 48.8566 39.963 48.8658 40.07C48.9833 41.4256 49.1275 42.777 49.2914 44.1277C49.3012 44.2082 49.3109 44.2887 49.3209 44.3716C49.4105 45.1129 49.5011 45.854 49.5924 46.595C49.6432 47.0077 49.6932 47.4204 49.7429 47.8332C49.7616 47.9872 49.7805 48.1412 49.7997 48.2952C50.1086 50.7674 50.1086 50.7674 49.7929 51.2476C49.57 51.3954 49.3921 51.4299 49.1276 51.4307C49.0626 51.431 48.9976 51.4312 48.9307 51.4314C48.8634 51.4308 48.7962 51.4301 48.7269 51.4295C48.6612 51.4301 48.5955 51.4307 48.5278 51.4314C48.0095 51.4297 47.4553 51.4073 47.0092 51.1213C46.6403 50.5458 46.6479 49.7256 46.5596 49.0651C46.2236 48.9717 45.8958 48.9665 45.5492 48.9641C45.4878 48.9624 45.4264 48.9608 45.3632 48.959C45.1138 48.9573 44.9058 48.9647 44.6764 49.0677C44.4722 49.3038 44.3625 49.57 44.2356 49.8533C43.7372 50.8846 43.7372 50.8846 43.2454 51.0859C42.4828 51.1959 41.7718 51.1116 41.1034 50.7273C40.8651 50.479 40.8737 50.1723 40.8785 49.838C40.9734 48.9758 41.3163 48.1086 41.5872 47.2871C41.687 46.9846 41.7856 46.6817 41.8842 46.3787C41.9041 46.3178 41.924 46.2569 41.9444 46.1941C42.1178 45.6608 42.2832 45.1253 42.4472 44.5891C42.7734 43.5294 43.1131 42.4741 43.4557 41.4196C43.5171 41.2305 43.5783 41.0414 43.6393 40.8522C43.726 40.5835 43.8134 40.3151 43.9009 40.0467C43.9266 39.9668 43.9523 39.8868 43.9787 39.8045C44.4799 38.2786 44.4799 38.2786 45.0238 37.7486C45.8454 37.4593 47.7484 37.5955 48.4781 38.0852ZM45.9937 43.4069C45.7596 44.1201 45.5467 44.8363 45.3622 45.5641C45.3446 45.6327 45.3269 45.7013 45.3087 45.7719C45.2286 46.0942 45.1615 46.3861 45.1854 46.721C45.574 46.8821 45.8257 46.8716 46.2362 46.8018C46.2602 45.6607 46.1897 44.5421 46.0746 43.4069C46.0479 43.4069 46.0212 43.4069 45.9937 43.4069Z" fill="#FEFEFE"/>
<path d="M57.5678 39.2743C58.0807 39.7764 58.2857 40.3842 58.2966 41.0877C58.2983 41.2528 58.2995 41.418 58.3004 41.5831C58.302 41.6659 58.3037 41.7487 58.3054 41.834C58.3077 42.2816 58.3025 42.6221 58.0377 43.0027C57.7281 43.2091 57.4721 43.1921 57.1131 43.1897C57.0483 43.1894 56.9834 43.1891 56.9166 43.1888C56.3882 43.1792 55.8603 43.1346 55.3702 42.9219C55.1559 42.6005 55.1475 42.3072 55.1002 41.9289C55.0667 41.6831 55.0667 41.6831 54.8044 41.5477C54.5518 41.5342 54.5518 41.5342 54.3194 41.5477C54.1137 41.9345 54.0261 42.2265 54.0971 42.6642C54.2124 43.0006 54.454 43.1872 54.7235 43.4069C54.8259 43.4916 54.8259 43.4916 54.9304 43.578C55.0812 43.7017 55.2324 43.8248 55.3841 43.9475C56.5419 44.8941 57.5664 45.8212 57.7724 47.3664C57.8832 48.5545 57.7804 49.9239 57.0677 50.9243C56.1771 51.8311 55.0272 51.9096 53.8243 51.9246C53.1789 51.9235 52.6335 51.884 52.0561 51.5709C51.9861 51.5367 51.916 51.5024 51.8439 51.4671C51.21 51.1284 50.7708 50.6629 50.5304 49.9796C50.498 49.8639 50.4674 49.7477 50.4394 49.631C50.4211 49.5559 50.4028 49.4809 50.3839 49.4036C50.3117 48.6676 50.2349 47.6755 50.6324 47.0216C50.817 46.8249 50.9723 46.8042 51.2367 46.7854C51.9885 46.7752 52.866 46.7759 53.5111 47.206C53.6267 47.5528 53.6231 47.8986 53.6421 48.2622C53.6494 48.5089 53.6494 48.5089 53.8344 48.661C54.1139 48.7081 54.1139 48.7081 54.4002 48.661C54.6199 48.4342 54.6415 48.2657 54.6831 47.9537C54.6395 47.1725 54.0798 46.7018 53.5356 46.2094C53.3934 46.0827 53.2504 45.957 53.1069 45.8319C53.0091 45.7462 53.0091 45.7462 52.9092 45.6588C52.8295 45.5894 52.8295 45.5894 52.7482 45.5186C51.8858 44.7663 51.1592 43.9343 51.0732 42.7433C51.014 41.5169 51.0696 40.2108 51.8591 39.2042C53.2977 37.6524 56.0161 38.0659 57.5678 39.2743Z" fill="#FEFEFE"/>
<path d="M68.8436 39.8351C68.8976 39.8351 68.9517 39.8351 69.0073 39.8352C72.7447 39.8421 72.7447 39.8421 73.4157 40.4514C73.8804 41.132 73.6247 42.1751 73.5354 42.949C73.4633 43.3102 73.3498 43.6008 73.1025 43.8767C72.4943 44.1808 71.7683 44.0425 71.1322 43.8919C70.8897 43.7302 70.8897 43.7302 70.8088 43.4877C70.8056 43.2991 70.8053 43.1104 70.8088 42.9219C70.6677 42.8995 70.5262 42.8798 70.3845 42.8612C70.3057 42.85 70.2269 42.8387 70.1458 42.8271C69.9128 42.8214 69.9128 42.8214 69.7353 42.9724C69.572 43.198 69.5338 43.3544 69.4953 43.6291C69.4832 43.7088 69.4711 43.7884 69.4587 43.8704C69.4309 44.1762 69.4307 44.474 69.4347 44.781C69.4946 44.7871 69.5546 44.7932 69.6164 44.7994C69.8877 44.8275 70.1588 44.8573 70.4299 44.8871C70.5715 44.9014 70.5715 44.9014 70.7159 44.916C70.8062 44.9261 70.8966 44.9363 70.9898 44.9468C71.0732 44.9557 71.1566 44.9646 71.2425 44.9737C71.4785 45.0289 71.5645 45.065 71.698 45.266C71.7294 45.4526 71.7294 45.4526 71.7302 45.6708C71.7305 45.7506 71.7308 45.8304 71.7312 45.9127C71.7302 45.996 71.7293 46.0794 71.7283 46.1653C71.7292 46.2467 71.7302 46.3282 71.7312 46.4122C71.7292 46.9192 71.6888 47.3938 71.4555 47.8526C70.8757 48.1425 69.8965 47.9036 69.273 47.8526C69.266 48.1726 69.2617 48.4925 69.2579 48.8125C69.2558 48.9037 69.2538 48.9949 69.2517 49.0888C69.2505 49.2193 69.2505 49.2193 69.2494 49.3524C69.2474 49.4731 69.2474 49.4731 69.2455 49.5962C69.2546 49.661 69.2637 49.7258 69.273 49.7926C69.5409 49.9712 69.6242 49.9724 69.9348 49.9644C70.0077 49.9629 70.0805 49.9615 70.1556 49.9599C70.2111 49.9581 70.2666 49.9562 70.3239 49.9543C70.3376 49.9036 70.3514 49.853 70.3655 49.8008C70.3851 49.7347 70.4047 49.6687 70.4249 49.6006C70.4436 49.535 70.4624 49.4693 70.4817 49.4017C70.5882 49.1815 70.6642 49.1516 70.8897 49.0651C71.1709 49.0539 71.4487 49.0914 71.7283 49.1207C71.8038 49.1271 71.8792 49.1335 71.9569 49.1401C72.3729 49.1811 72.7165 49.2312 73.0721 49.4693C73.2816 50.0978 73.1632 50.809 73.0469 51.4497C73.0326 51.5309 73.0326 51.5309 73.0181 51.6138C72.9352 52.0344 72.7942 52.3262 72.5013 52.6369C71.2987 53.3789 69.2064 52.9293 67.9039 52.6369C67.1248 52.4499 66.3919 52.1976 65.9387 51.4951C65.783 51.067 65.7835 50.6218 65.7856 50.1715C65.7858 50.1052 65.7859 50.039 65.7861 49.9707C65.7935 49.0747 65.8487 48.1809 65.9033 47.2868C65.9088 47.196 65.9143 47.1051 65.9199 47.0115C66.0212 45.3385 66.1546 43.681 66.4389 42.0277C66.4506 41.9579 66.4624 41.8881 66.4745 41.8162C66.6055 41.1113 66.7788 40.4725 67.3586 40.0166C67.7924 39.7439 68.3516 39.8348 68.8436 39.8351Z" fill="#FEFEFE"/>
<path d="M60.8153 38.9425C60.8923 38.9491 60.9694 38.9557 61.0488 38.9625C61.2111 38.9765 61.3733 38.9907 61.5356 39.0051C61.7774 39.0265 62.0193 39.0469 62.2613 39.0674C63.0674 39.1368 63.8717 39.218 64.6744 39.3207C64.7477 39.3296 64.8211 39.3384 64.8967 39.3475C65.3885 39.4137 65.7724 39.5189 66.1493 39.8613C66.3339 40.1821 66.3242 40.4417 66.3128 40.8051C66.3127 40.8672 66.3126 40.9294 66.3125 40.9934C66.3051 41.4826 66.2777 41.997 65.9642 42.3914C65.6554 42.6253 65.3796 42.6095 65.0043 42.6087C64.9071 42.6089 64.8099 42.6091 64.7097 42.6093C64.4447 42.5994 64.199 42.5638 63.9384 42.5177C63.933 42.6656 63.933 42.6656 63.9274 42.8165C63.8785 44.0549 63.7896 45.2896 63.6921 46.525C63.6744 46.7494 63.657 46.9738 63.6399 47.1982C63.552 48.353 63.4572 49.5066 63.329 50.6578C63.3196 50.7446 63.3102 50.8314 63.3005 50.9208C63.2912 51.0009 63.2819 51.0809 63.2723 51.1634C63.2643 51.2327 63.2563 51.302 63.2481 51.3735C63.1952 51.6538 63.143 51.9062 62.9069 52.0797C62.5162 52.2029 62.0961 52.1631 61.6902 52.162C61.5492 52.164 61.5492 52.164 61.4053 52.166C60.4785 52.1665 60.4785 52.1665 60.0584 51.8943C59.5217 51.0108 59.8596 49.6528 59.9545 48.6629C59.9689 48.5091 59.9832 48.3554 59.9975 48.2017C60.0348 47.7999 60.0728 47.3982 60.111 46.9965C60.1495 46.5894 60.1876 46.1822 60.2256 45.775C60.2685 45.3161 60.3114 44.8572 60.3548 44.3983C60.4217 43.6909 60.487 42.9835 60.5434 42.2752C60.491 42.2663 60.4385 42.2573 60.3845 42.248C60.1728 42.2115 59.9615 42.1726 59.7502 42.1338C59.6376 42.1147 59.6376 42.1147 59.5228 42.0952C59.4506 42.0817 59.3784 42.0682 59.3041 42.0542C59.2044 42.0364 59.2044 42.0364 59.1027 42.0183C58.8778 41.9334 58.807 41.8322 58.6843 41.6286C58.4587 40.9519 58.5415 39.8755 58.7651 39.2036C59.1229 38.6036 60.2118 38.889 60.8153 38.9425Z" fill="#FEFEFE"/>
<path d="M36.1318 86.0054C36.7012 86.0531 37.2568 86.1358 37.8179 86.2419C37.9869 86.2732 38.1559 86.3045 38.3249 86.3357C38.4122 86.3519 38.4996 86.3681 38.5895 86.3848C42.6136 87.1292 46.6224 87.4725 50.7154 87.474C50.89 87.4742 51.0646 87.4745 51.2392 87.4748C51.6024 87.4753 51.9656 87.4754 52.3288 87.4754C52.6939 87.4754 53.059 87.4759 53.4241 87.477C58.2129 87.4913 62.9817 87.2327 67.6935 86.3261C68.2199 86.225 68.739 86.1351 69.273 86.0863C69.0763 86.3813 68.8723 86.4583 68.5556 86.5864C68.496 86.6106 68.4363 86.6347 68.3748 86.6596C64.0766 88.3344 59.2867 88.6282 54.7182 88.7234C54.5902 88.7261 54.5902 88.7261 54.4597 88.7288C48.6672 88.8445 41.4178 88.9111 36.1318 86.1671C36.1318 86.1137 36.1318 86.0604 36.1318 86.0054Z" fill="#FCFDFC"/>
<path d="M48.297 53.6119C48.3908 53.6201 48.3908 53.6201 48.4865 53.6284C48.7049 53.6837 48.7655 53.7366 48.9033 53.9151C48.9679 54.1578 48.9679 54.1578 49.0154 54.4515C49.0328 54.5565 49.0503 54.6615 49.0683 54.7696C49.0857 54.8805 49.1031 54.9914 49.1205 55.1023C49.1388 55.2141 49.1572 55.3259 49.1756 55.4378C49.2204 55.7114 49.2643 55.9852 49.3074 56.2592C49.427 55.7961 49.5448 55.3338 49.6358 54.8642C49.6549 54.766 49.6549 54.766 49.6743 54.6659C49.6998 54.5328 49.7246 54.3995 49.7489 54.2662C49.7679 54.1696 49.7679 54.1696 49.7874 54.071C49.7981 54.0137 49.8088 53.9564 49.8199 53.8973C49.8733 53.7534 49.8733 53.7534 50.1158 53.5917C50.4457 53.5651 50.6588 53.5575 50.9718 53.6609C51.2848 53.9394 51.3075 54.2927 51.3838 54.6931C51.3999 54.7707 51.416 54.8483 51.4326 54.9283C51.4644 55.082 51.4955 55.2358 51.526 55.3897C51.5898 55.7076 51.661 56.0237 51.7324 56.34C51.7429 56.2736 51.7535 56.2071 51.7644 56.1387C51.8044 55.8907 51.8455 55.6429 51.8873 55.3952C51.9139 55.2359 51.9392 55.0763 51.9645 54.9168C51.9817 54.816 51.9989 54.7151 52.0166 54.6113C52.0318 54.5186 52.0471 54.4259 52.0628 54.3304C52.1458 54.0449 52.2553 53.8861 52.4599 53.6726C52.6392 53.6097 52.6392 53.6097 52.8236 53.5968C52.8845 53.591 52.9453 53.5853 53.008 53.5794C53.2143 53.5936 53.3367 53.6431 53.5107 53.7534C53.9319 54.5959 53.4436 56.0939 53.294 56.9659C53.2428 57.2656 53.1933 57.5655 53.144 57.8656C53.1117 58.0575 53.0793 58.2494 53.0469 58.4413C53.0322 58.5303 53.0175 58.6194 53.0024 58.7111C52.81 59.8184 52.81 59.8184 52.4353 60.1347C52.1748 60.2366 51.9999 60.237 51.7223 60.2099C51.6387 60.203 51.5552 60.1961 51.4691 60.189C51.2207 60.1331 51.1615 60.0904 51.0049 59.8966C50.9416 59.7233 50.9416 59.7233 50.8957 59.525C50.8786 59.4536 50.8615 59.3821 50.8439 59.3085C50.827 59.2342 50.8101 59.1599 50.7927 59.0833C50.7581 58.9358 50.7234 58.7883 50.6885 58.6409C50.6736 58.5756 50.6586 58.5102 50.6432 58.4429C50.6057 58.2759 50.6057 58.2759 50.5199 58.1183C50.511 58.1627 50.502 58.2071 50.4928 58.2529C50.4517 58.4557 50.41 58.6583 50.3684 58.861C50.3543 58.9308 50.3402 59.0007 50.3257 59.0727C50.1714 59.8185 50.1714 59.8185 50.0349 60.0583C49.7118 60.2292 49.3166 60.2457 48.9588 60.1947C48.7775 60.1323 48.6824 60.089 48.5709 59.9306C48.3059 59.3294 48.1831 58.6985 48.0545 58.0577C48.03 57.9382 48.0054 57.8186 47.9808 57.6991C47.9208 57.4068 47.8618 57.1143 47.8033 56.8216C47.7744 56.6774 47.7452 56.5333 47.7158 56.3892C47.3116 54.4027 47.3116 54.4027 47.3675 53.9959C47.6407 53.6572 47.8705 53.5693 48.297 53.6119Z" fill="#FEFEFD"/>
<path d="M40.4112 53.5412C40.4937 53.5385 40.5761 53.5358 40.661 53.533C40.9929 53.6141 41.1325 53.7977 41.3054 54.0767C41.4213 54.2975 41.5192 54.5231 41.6136 54.7537C41.6388 54.8132 41.6639 54.8727 41.6899 54.934C41.7511 55.079 41.8113 55.2245 41.8713 55.37C41.8786 55.2938 41.8786 55.2938 41.8861 55.2159C41.9075 54.9978 41.9298 54.7798 41.9521 54.5617C41.9579 54.4993 41.9638 54.4369 41.9698 54.3726C42.0002 54.0808 42.0288 53.9213 42.1946 53.6726C42.4983 53.5713 42.7661 53.5552 43.0838 53.5917C43.2805 53.7123 43.3145 53.7883 43.3713 54.0099C43.4134 54.2786 43.418 54.5352 43.4188 54.8072C43.4191 54.8629 43.4194 54.9185 43.4196 54.9759C43.4204 55.1588 43.4206 55.3418 43.4207 55.5247C43.4209 55.6523 43.4212 55.7798 43.4215 55.9073C43.422 56.174 43.4221 56.4408 43.4221 56.7075C43.4221 57.0496 43.4232 57.3916 43.4246 57.7336C43.4254 57.9967 43.4256 58.2598 43.4256 58.5229C43.4257 58.649 43.426 58.7752 43.4266 58.9013C43.4274 59.0774 43.4272 59.2534 43.4267 59.4295C43.4268 59.5297 43.427 59.6299 43.4271 59.7331C43.4071 59.9775 43.4071 59.9775 43.2454 60.22C42.8833 60.2853 42.5373 60.2626 42.1997 60.1189C41.8759 59.8442 41.7532 59.5863 41.6487 59.177C41.6247 59.0851 41.6006 58.9931 41.5759 58.8984C41.5517 58.8027 41.5274 58.707 41.5025 58.6084C41.4538 58.419 41.4048 58.2296 41.3557 58.0403C41.3237 57.9145 41.3237 57.9145 41.2911 57.7862C41.2284 57.5659 41.1522 57.3591 41.063 57.1483C41.0638 57.2193 41.0646 57.2902 41.0655 57.3632C41.0683 57.6281 41.0703 57.8929 41.0718 58.1578C41.0726 58.2721 41.0737 58.3864 41.0751 58.5007C41.0771 58.6656 41.078 58.8305 41.0787 58.9955C41.0796 59.0945 41.0804 59.1936 41.0813 59.2956C41.0624 59.5809 41.016 59.7968 40.9013 60.0583C40.6079 60.2539 40.3537 60.2781 40.0121 60.22C39.8025 60.1331 39.8025 60.1331 39.608 59.9775C39.5572 59.7203 39.5572 59.7203 39.557 59.3986C39.5561 59.3106 39.5561 59.3106 39.5552 59.2208C39.5538 59.0268 39.5554 58.833 39.5571 58.639C39.5571 58.5042 39.5569 58.3694 39.5565 58.2346C39.5563 57.952 39.5575 57.6694 39.5597 57.3868C39.5625 57.0246 39.562 56.6625 39.5605 56.3004C39.5596 56.0219 39.5603 55.7435 39.5616 55.4651C39.562 55.3316 39.5619 55.1981 39.5614 55.0646C39.561 54.8778 39.5626 54.6912 39.5649 54.5044C39.5654 54.3982 39.5659 54.2919 39.5664 54.1825C39.6455 53.6738 39.9257 53.5449 40.4112 53.5412Z" fill="#FEFEFC"/>
<path d="M68.3077 53.797C68.5388 53.9704 68.6532 54.1448 68.7883 54.4C68.8256 54.7069 68.8256 54.7069 68.8186 55.0265C68.8176 55.1328 68.8165 55.239 68.8155 55.3486C68.7883 55.6125 68.7883 55.6125 68.6267 55.7742C67.603 55.9002 67.603 55.9002 67.2557 55.6684C67.1565 55.5367 67.1565 55.5367 67.01 55.2892C66.835 55.2129 66.835 55.2129 66.6867 55.2084C66.5856 55.5202 66.5942 55.8319 66.5951 56.1559C66.595 56.2159 66.595 56.2759 66.5949 56.3376C66.5948 56.4641 66.5951 56.6633 66.5953 56.717C66.5955 56.7706 66.5856 57.0761 66.585 57.2696C66.5851 57.3926 66.595 57.5435 66.5951 57.6665C66.595 57.7243 66.5948 57.7822 66.5946 57.8418C66.5958 58.091 66.6072 58.2841 66.6867 58.5225C66.8201 58.5492 66.9534 58.5758 67.0908 58.6033C67.1175 58.3366 67.1442 58.0698 67.1717 57.795C67.0541 57.78 67.0491 57.7699 66.9292 57.7546C66.8629 57.6876 66.8393 57.6528 66.8079 57.5929C66.7879 57.6204 66.7078 57.0277 66.7271 56.9867C66.7131 56.831 66.7157 56.7656 66.7271 56.6633C66.7385 56.5611 66.7487 56.4751 66.8483 56.34C66.8483 56.34 67.01 56.2233 67.3087 56.2327C67.3799 56.2331 67.451 56.2335 67.5244 56.2339C67.598 56.2356 67.6717 56.2372 67.7476 56.239C67.8219 56.2394 67.8962 56.2398 67.9727 56.2402C68.5208 56.2467 68.5208 56.2467 68.7075 56.34C68.979 57.1546 68.8699 58.4397 68.6267 59.25C68.4751 59.5329 68.4751 59.5329 68.3033 59.735C68.255 59.795 68.2066 59.855 68.1568 59.9168C67.6233 60.3437 66.8449 60.2646 66.2017 60.22C65.7566 60.1335 65.4117 59.9492 65.1509 59.5733C64.9015 58.7467 64.9646 57.8342 64.9681 56.9815C64.969 56.7287 64.9681 56.4761 64.9671 56.2233C64.9672 56.0607 64.9674 55.898 64.9677 55.7353C64.9674 55.6608 64.9671 55.5863 64.9667 55.5095C64.975 54.3497 64.975 54.3497 65.3681 53.9201C66.1841 53.412 67.434 53.4305 68.3077 53.797Z" fill="#FEFEFC"/>
<path d="M46.5342 53.7281C47.0059 54.0243 47.178 54.3819 47.3165 54.9069C47.4204 55.5175 47.4034 56.1372 47.3994 56.755C47.3981 56.9968 47.3994 57.2385 47.4009 57.4802C47.4008 57.6359 47.4005 57.7915 47.4 57.9472C47.4007 58.0541 47.4007 58.0541 47.4015 58.1631C47.395 58.739 47.2954 59.2914 46.9485 59.7653C46.4299 60.2493 45.896 60.2594 45.2134 60.2433C44.6903 60.1982 44.2696 60.0318 43.892 59.6542C43.6271 59.1509 43.636 58.5876 43.6331 58.0325C43.6326 57.9623 43.6322 57.8921 43.6317 57.8198C43.6309 57.6714 43.6304 57.523 43.6301 57.3746C43.6293 57.1513 43.6268 56.928 43.6242 56.7047C43.6111 54.5807 43.6111 54.5807 44.2153 53.9151C44.834 53.4547 45.8446 53.4118 46.5342 53.7281ZM45.347 55.1275C45.1885 55.286 45.2324 55.5825 45.2207 55.7995C45.2173 55.8598 45.2139 55.9201 45.2105 55.9822C45.1857 56.4719 45.1767 56.9612 45.1752 57.4515C45.1748 57.5198 45.1745 57.588 45.1741 57.6584C45.1749 57.984 45.1848 58.2856 45.2661 58.6033C45.3728 58.63 45.4795 58.6567 45.5895 58.6842C45.8355 58.4364 45.8601 58.2292 45.8615 57.8868C45.8605 57.8255 45.8595 57.7643 45.8585 57.7012C45.8583 57.6377 45.8582 57.5741 45.858 57.5086C45.8575 57.3746 45.8564 57.2405 45.8547 57.1065C45.8522 56.9013 45.8514 56.6961 45.8509 56.4908C45.8502 56.3604 45.8493 56.2301 45.8484 56.0997C45.848 56.0384 45.8477 55.977 45.8474 55.9137C45.8439 55.6579 45.8326 55.4528 45.7511 55.2084C45.6173 55.1775 45.4824 55.1507 45.347 55.1275Z" fill="#FEFEFC"/>
<path d="M36.1422 53.5513C36.2107 53.5521 36.2793 53.553 36.3499 53.5538C36.5362 53.5917 36.5362 53.5917 36.6786 53.6741C36.8379 53.9289 36.8254 54.2038 36.8343 54.496C36.8384 54.5869 36.8384 54.5869 36.8427 54.6796C36.8493 54.8289 36.8546 54.9782 36.8596 55.1275C37.1013 54.8858 37.1887 54.5663 37.3062 54.2499C37.4068 53.9987 37.4897 53.8472 37.7042 53.6789C38.0769 53.5214 38.4112 53.5483 38.7945 53.6625C38.9612 53.7534 38.9612 53.7534 39.042 53.9151C39.0113 54.5783 38.7961 55.1093 38.5405 55.7153C38.2273 56.4893 38.2849 57.0042 38.5772 57.7798C38.603 57.851 38.6287 57.9222 38.6553 57.9956C38.7632 58.293 38.8746 58.5887 38.9899 58.8834C39.1623 59.3271 39.2397 59.6618 39.2037 60.1391C38.7035 60.3059 38.1518 60.2616 37.6679 60.0583C37.3883 59.6962 37.2916 59.2535 37.1677 58.8206C37.1457 58.7453 37.1237 58.67 37.1009 58.5924C37.0469 58.4076 36.9934 58.2226 36.9404 58.0375C36.8424 58.1173 36.8424 58.1173 36.8529 58.2708C36.8551 58.3687 36.8551 58.3687 36.8573 58.4685C36.8583 58.5397 36.8593 58.6109 36.8603 58.6843C36.8632 58.8348 36.8663 58.9853 36.8698 59.1358C36.8707 59.2074 36.8716 59.2789 36.8725 59.3526C36.8739 59.4181 36.8752 59.4836 36.8766 59.5511C36.8575 59.757 36.8063 59.8833 36.6979 60.0583C36.4629 60.2186 36.2904 60.2395 36.0108 60.2099C35.9195 60.202 35.9195 60.202 35.8264 60.1941C35.5795 60.1184 35.4841 60.0184 35.3237 59.8158C35.2821 59.5587 35.2821 59.5587 35.2806 59.2513C35.2799 59.1951 35.2792 59.1389 35.2785 59.0811C35.2767 58.8958 35.2772 58.7106 35.278 58.5253C35.2775 58.3963 35.277 58.2672 35.2764 58.1382C35.2756 57.8678 35.276 57.5975 35.2772 57.3271C35.2785 56.9809 35.2766 56.6349 35.2738 56.2888C35.272 56.0223 35.2721 55.7558 35.2728 55.4893C35.2729 55.3617 35.2723 55.2341 35.2711 55.1066C35.2697 54.9279 35.2709 54.7495 35.2727 54.5709C35.2728 54.4694 35.2729 54.3679 35.273 54.2633C35.3634 53.787 35.6596 53.5336 36.1422 53.5513Z" fill="#FDFEFD"/>
<path d="M62.2608 53.5665C62.3588 53.5645 62.3588 53.5645 62.4588 53.5625C63.0521 53.5621 63.5457 53.6889 64.0492 54.006C64.6682 54.6839 64.5991 55.7285 64.5948 56.5926C64.5945 56.6741 64.5942 56.7556 64.5938 56.8396C64.5765 59.18 64.5765 59.18 64.1547 59.7066C63.5541 60.2506 62.6822 60.2302 61.9179 60.2152C61.2956 60.17 61.2956 60.17 61.0281 59.8966C60.9514 59.5534 60.9367 59.2228 60.9356 58.872C60.935 58.7663 60.9345 58.6605 60.934 58.5516C60.9339 58.4373 60.9338 58.323 60.9337 58.2086C60.9335 58.0905 60.9332 57.9724 60.9329 57.8542C60.9324 57.6073 60.9323 57.3604 60.9323 57.1135C60.9323 56.7973 60.9312 56.4811 60.9298 56.1649C60.9289 55.9212 60.9288 55.6776 60.9288 55.4339C60.9287 55.3173 60.9284 55.2007 60.9277 55.0841C60.9269 54.9212 60.9273 54.7583 60.9277 54.5955C60.9275 54.5029 60.9274 54.4103 60.9273 54.3149C60.947 54.0806 60.9799 53.9478 61.109 53.7534C61.4659 53.5388 61.857 53.5649 62.2608 53.5665ZM62.4831 55.1276C62.365 55.2272 62.365 55.2272 62.3931 55.5292C62.3931 55.6724 62.3936 55.8157 62.3944 55.9589C62.3945 56.0342 62.3946 56.1094 62.3947 56.1869C62.3952 56.4283 62.3962 56.6696 62.3972 56.9109C62.3976 57.0741 62.398 57.2373 62.3983 57.4005C62.3992 57.8014 62.4006 58.2024 62.4023 58.6033C62.5516 58.6592 62.5516 58.6592 62.7256 58.6842C62.9868 58.5491 62.9868 58.5491 63.023 58.3077C63.0511 58.0144 63.0594 57.7275 63.0597 57.4328C63.0597 57.3767 63.0598 57.3205 63.0599 57.2627C63.06 57.1448 63.0598 57.027 63.0595 56.9091C63.059 56.7287 63.0595 56.5484 63.06 56.368C63.0599 56.2531 63.0598 56.1382 63.0597 56.0233C63.0596 55.9193 63.0595 55.8153 63.0594 55.7082C63.0608 55.449 63.0608 55.449 62.9681 55.2084C62.8071 55.1776 62.6454 55.1507 62.4831 55.1276Z" fill="#FEFEFD"/>
<path d="M58.2175 53.5595C58.2987 53.5592 58.2987 53.5592 58.3816 53.5588C58.4953 53.5586 58.6091 53.5591 58.7228 53.5601C58.8965 53.5614 59.07 53.5601 59.2437 53.5586C59.3546 53.5587 59.4655 53.559 59.5765 53.5595C59.6767 53.5598 59.7769 53.5601 59.8801 53.5603C60.1555 53.5937 60.267 53.642 60.4625 53.8342C60.5833 54.1162 60.5645 54.4218 60.5433 54.7234C60.4498 54.9103 60.3676 55.0608 60.22 55.2084C60.1057 55.221 59.9909 55.2286 59.8761 55.2339C59.8071 55.2373 59.7381 55.2407 59.6669 55.2442C59.5581 55.249 59.5581 55.249 59.447 55.2538C59.3741 55.2573 59.3012 55.2608 59.2261 55.2644C59.0455 55.273 58.8648 55.2813 58.6842 55.2892C58.682 55.4087 58.6804 55.5283 58.6791 55.6479C58.6782 55.7145 58.6772 55.7811 58.6763 55.8497C58.6654 56.016 58.6654 56.016 58.765 56.0975C58.9709 56.1204 59.1768 56.1337 59.3836 56.1477C59.5733 56.1783 59.5733 56.1783 59.735 56.34C59.751 56.5458 59.7575 56.7407 59.7552 56.9463C59.7561 57.0299 59.7561 57.0299 59.7571 57.1152C59.7555 57.532 59.7555 57.532 59.5733 57.7142C59.3453 57.7476 59.3453 57.7476 59.0782 57.7647C58.9897 57.7707 58.9011 57.7768 58.8098 57.783C58.7417 57.787 58.6735 57.7909 58.6033 57.795C58.6033 58.0351 58.6033 58.2751 58.6033 58.5225C58.7172 58.5255 58.8311 58.5285 58.9484 58.5316C59.0978 58.5369 59.2471 58.5423 59.3965 58.5477C59.4716 58.5496 59.5466 58.5514 59.624 58.5533C59.6962 58.5561 59.7683 58.559 59.8427 58.5619C59.9423 58.5651 59.9423 58.5651 60.044 58.5684C60.2606 58.6114 60.3322 58.6693 60.4625 58.8458C60.5549 59.2793 60.5686 59.5641 60.3816 59.9775C60.1003 60.2588 59.6862 60.1637 59.306 60.1652C59.2462 60.165 59.1865 60.1648 59.1249 60.1646C58.9433 60.1644 58.7619 60.1663 58.5804 60.1683C58.4646 60.1685 58.3488 60.1686 58.233 60.1685C58.0751 60.1688 58.0751 60.1688 57.9141 60.1692C57.6096 60.1366 57.4612 60.0955 57.2292 59.8966C56.9831 59.4421 57.0458 58.8934 57.0489 58.3905C57.0489 58.2912 57.049 58.1919 57.049 58.0896C57.0492 57.8797 57.0499 57.6698 57.0509 57.4598C57.0524 57.1411 57.0525 56.8223 57.0525 56.5036C57.0529 56.299 57.0534 56.0944 57.0539 55.8898C57.054 55.7955 57.0541 55.7012 57.0542 55.6041C57.0557 55.3373 57.0609 55.0709 57.0675 54.8042C57.0681 54.7136 57.0687 54.6229 57.0694 54.5295C57.0777 54.2882 57.0909 54.0688 57.1484 53.8342C57.4728 53.5577 57.8016 53.5606 58.2175 53.5595Z" fill="#FDFEFC"/>
<path d="M70.1143 53.5753C70.1726 53.5749 70.2309 53.5744 70.2909 53.5739C70.414 53.5732 70.5372 53.5726 70.6603 53.5723C70.8487 53.5715 71.037 53.569 71.2254 53.5665C71.3451 53.566 71.4648 53.5655 71.5844 53.5652C71.6408 53.5642 71.6971 53.5632 71.7551 53.5622C71.9866 53.5633 72.1452 53.5659 72.3396 53.6982C72.4819 53.9232 72.4607 54.1382 72.461 54.4001C72.4625 54.5001 72.4641 54.6001 72.4657 54.7032C72.4256 54.9659 72.4256 54.9659 72.3059 55.119C72.0059 55.2506 71.7195 55.2545 71.395 55.264C71.3309 55.2667 71.2668 55.2695 71.2008 55.2723C71.0433 55.279 70.8857 55.2842 70.7281 55.2892C70.7014 55.556 70.6748 55.8227 70.6473 56.0975C70.7154 56.1006 70.7836 56.1036 70.8538 56.1067C70.9424 56.112 71.0309 56.1173 71.1222 56.1228C71.2103 56.1275 71.2985 56.1322 71.3893 56.137C71.4645 56.1507 71.5398 56.1643 71.6173 56.1784C71.8047 56.4595 71.7986 56.5747 71.7941 56.9059C71.7936 56.9909 71.7931 57.0759 71.7925 57.1635C71.7789 57.3909 71.7789 57.3909 71.6981 57.6334C71.4479 57.7585 71.1835 57.7501 70.9072 57.7723C70.7305 57.7761 70.7305 57.7761 70.6473 57.8758C70.6555 58.0306 70.6555 58.0306 70.6827 58.2042C70.6977 58.3093 70.7127 58.4143 70.7281 58.5225C70.8303 58.5255 70.9326 58.5285 71.0379 58.5317C71.1721 58.537 71.3063 58.5423 71.4405 58.5478C71.5078 58.5496 71.5752 58.5514 71.6446 58.5533C71.7095 58.5562 71.7743 58.559 71.8411 58.562C71.9307 58.5651 71.9307 58.5651 72.022 58.5684C72.2279 58.613 72.2996 58.6787 72.4256 58.8458C72.518 59.2793 72.5318 59.5641 72.3448 59.9775C72.0678 60.2544 71.6719 60.1637 71.2979 60.1652C71.2111 60.1649 71.2111 60.1649 71.1225 60.1647C70.9469 60.1644 70.7713 60.1663 70.5957 60.1684C70.4835 60.1685 70.3714 60.1686 70.2592 60.1685C70.1574 60.1688 70.0556 60.169 69.9506 60.1692C69.5782 60.1282 69.3727 59.9962 69.1115 59.735C69.0315 59.33 69.0188 58.9301 69.0199 58.5187C69.0198 58.4572 69.0197 58.3956 69.0196 58.3322C69.0194 58.133 69.0199 57.9337 69.0205 57.7344C69.0207 57.6665 69.0208 57.5986 69.0209 57.5287C69.0229 56.6287 69.0321 55.7291 69.061 54.8295C69.0634 54.7394 69.0659 54.6494 69.0685 54.5566C69.0716 54.4746 69.0748 54.3926 69.078 54.3082C69.0818 54.2023 69.0818 54.2023 69.0857 54.0942C69.1115 53.9151 69.1115 53.9151 69.2731 53.6726C69.558 53.5776 69.8177 53.5771 70.1143 53.5753Z" fill="#FDFEFD"/>
<path d="M23.9265 28.5338C23.9798 28.5604 24.0332 28.5871 24.0881 28.6146C24.0853 28.703 24.0853 28.703 24.0825 28.7933C24.0467 30.8616 24.4427 32.937 25.8664 34.5153C25.9396 34.5997 25.9396 34.5997 26.0142 34.6858C26.9175 35.665 28.2438 36.2292 29.4995 36.6028C29.7464 36.6978 29.7464 36.6978 29.9081 36.9403C27.8942 36.9944 25.8814 36.842 24.3205 35.407C23.3204 34.3235 23.0085 32.9705 23.007 31.5448C23.004 31.401 23.004 31.401 23.001 31.2543C22.998 30.326 23.1882 29.4427 23.7648 28.6954C23.8182 28.6421 23.8715 28.5887 23.9265 28.5338Z" fill="#FDFEFA"/>
<path d="M50.682 71.294C50.762 71.374 50.762 71.374 50.8437 71.4556C50.8064 71.9779 50.8064 71.9779 50.6012 72.1831C50.3942 72.1997 50.192 72.2089 49.9848 72.2134C49.342 72.2411 48.9416 72.3579 48.4389 72.7692C47.9687 73.3439 47.7835 73.952 47.8529 74.6889C47.917 74.9387 48.0023 75.1762 48.0954 75.4164C48.2305 75.8218 48.2642 76.1291 48.0726 76.5133C47.6376 77.1757 47.1354 77.5163 46.3739 77.7195C45.4901 77.8855 44.7725 77.7224 44.0336 77.22C43.4529 76.7555 43.0126 75.9963 42.9221 75.2548C42.8972 74.952 42.8857 74.6891 43.0131 74.406C43.1646 74.2848 43.1646 74.2848 43.4122 74.2494C43.4905 74.2611 43.5689 74.2728 43.6496 74.2848C43.8165 74.5351 43.839 74.6467 43.8769 74.9365C43.9739 75.5077 44.1655 76.0077 44.5741 76.4268C45.0328 76.6953 45.4692 76.78 45.9937 76.7097C46.3528 76.6008 46.6955 76.493 46.9637 76.2247C46.9958 75.898 46.9809 75.6963 46.8428 75.3962C46.5583 74.7587 46.6403 73.8298 46.8753 73.1825C47.2808 72.3063 47.8426 71.6655 48.7269 71.2536C49.3612 71.0271 50.0593 71.0431 50.682 71.294Z" fill="#F6F9F9"/>
<path d="M55.6987 71.1778C55.7599 71.1784 55.8212 71.179 55.8843 71.1796C56.7826 71.2058 57.4922 71.5339 58.111 72.1831C58.7267 72.9136 58.9152 73.6762 58.8792 74.6179C58.8399 74.9897 58.7363 75.2893 58.5894 75.6305C58.4904 75.9129 58.5276 76.1014 58.6036 76.3864C58.7377 76.4416 58.8726 76.4952 59.0077 76.5481C59.1153 76.5931 59.1153 76.5931 59.225 76.639C59.7854 76.787 60.297 76.7817 60.8062 76.4881C61.5239 75.9723 61.6474 75.091 61.8369 74.2848C62.1046 74.2595 62.1046 74.2595 62.4027 74.2848C62.5974 74.4673 62.6416 74.6021 62.6524 74.8673C62.5954 75.796 62.1842 76.5336 61.5287 77.1745C60.7338 77.7356 59.9627 77.7824 59.0077 77.6797C58.7255 77.614 58.5163 77.5227 58.2802 77.3564C58.2026 77.3035 58.2026 77.3035 58.1233 77.2497C57.6774 76.9089 57.4329 76.5072 57.3507 75.9519C57.3875 75.6851 57.4431 75.5301 57.5527 75.2901C57.7928 74.7286 57.8163 74.1145 57.6639 73.5228C57.4515 73.0344 57.0465 72.6626 56.5777 72.4202C56.1266 72.2486 55.6733 72.2295 55.1941 72.216C54.9661 72.1831 54.9661 72.1831 54.8161 72.0745C54.6696 71.8625 54.6872 71.7052 54.7236 71.4556C54.9977 71.157 55.3183 71.1725 55.6987 71.1778Z" fill="#F7FAFA"/>
<path d="M54.7638 53.5816C54.8263 53.5814 54.8888 53.5812 54.9532 53.581C55.1275 53.5917 55.1275 53.5917 55.37 53.6726C55.4766 53.8857 55.4605 54.0443 55.46 54.2829C55.46 54.3768 55.46 54.4706 55.46 54.5673C55.4596 54.6691 55.4592 54.7708 55.4587 54.8756C55.4586 54.9794 55.4585 55.0832 55.4584 55.1902C55.4581 55.4664 55.4573 55.7425 55.4564 56.0186C55.4556 56.3004 55.4552 56.5821 55.4548 56.8639C55.4539 57.4167 55.4526 57.9696 55.4509 58.5225C55.5297 58.5255 55.6086 58.5285 55.6899 58.5316C55.7927 58.537 55.8956 58.5423 56.0015 58.5478C56.1037 58.5524 56.206 58.5571 56.3113 58.562C56.5825 58.6033 56.5825 58.6033 56.738 58.714C56.871 58.9156 56.8571 59.0873 56.8553 59.3258C56.8562 59.4519 56.8562 59.4519 56.8572 59.5806C56.8202 59.8512 56.7743 59.9471 56.5825 60.1391C56.2263 60.2085 55.8635 60.1878 55.5014 60.1846C55.4018 60.1865 55.3021 60.1885 55.1995 60.1904C54.3846 60.1891 54.3846 60.1891 54.1342 59.9544C53.9227 59.6189 53.9049 59.3501 53.9046 58.9574C53.9043 58.8662 53.9041 58.7749 53.9038 58.6809C53.904 58.5826 53.9041 58.4843 53.9043 58.3829C53.9042 58.2812 53.9041 58.1796 53.9041 58.0748C53.904 57.8594 53.9041 57.644 53.9045 57.4286C53.905 57.1547 53.9047 56.8808 53.9042 56.6068C53.9038 56.3434 53.9041 56.08 53.9043 55.8165C53.9041 55.7191 53.904 55.6218 53.9038 55.5215C53.9079 54.0471 53.9079 54.0471 54.1575 53.6726C54.3849 53.5968 54.5284 53.5808 54.7638 53.5816Z" fill="#FDFEFC"/>
<path d="M56.4023 66.4308C57.0036 66.706 57.4519 67.1278 57.7092 67.7424C57.8074 68.0447 57.8148 68.3107 57.7951 68.6265C57.8607 68.6007 57.9264 68.5748 57.994 68.5482C58.7222 68.336 59.5872 68.3456 60.2756 68.672C61.0584 69.1363 61.5475 69.7797 61.8367 70.6473C61.9274 71.8301 61.9274 71.8301 61.5134 72.3448C61.1375 72.6925 60.8453 72.8528 60.3312 72.85C60.2535 72.8504 60.1757 72.8508 60.0957 72.8513C59.8967 72.8298 59.8967 72.8298 59.7351 72.6681C59.725 72.4559 59.725 72.4559 59.7351 72.264C60.1123 72.1023 60.4895 71.9406 60.8667 71.779C61.0061 71.1818 60.9034 70.8383 60.6091 70.3035C60.3074 69.8465 59.9571 69.5484 59.4117 69.4348C58.7918 69.3633 58.2552 69.6156 57.7395 69.94C57.435 70.1009 57.2456 70.1155 56.9059 70.0815C56.7721 69.9477 56.8131 69.7871 56.8109 69.6031C56.809 69.5217 56.8071 69.4403 56.8051 69.3564C56.8016 69.1846 56.7991 69.0128 56.7975 68.8411C56.7801 68.2064 56.6897 67.9115 56.2239 67.4696C55.8501 67.2925 55.5157 67.2828 55.1059 67.2666C54.8851 67.2524 54.8851 67.2524 54.8043 67.1715C54.7665 66.7364 54.7665 66.7364 54.9155 66.54C55.3328 66.235 55.9259 66.287 56.4023 66.4308Z" fill="#F7FAFA"/>
<path d="M50.5856 66.4709C50.7628 66.6057 50.7628 66.6057 50.8385 66.8533C50.8531 66.9006 50.884 67.0099 50.8436 67.0907C50.6819 67.2928 50.4538 67.274 50.1363 67.2827C49.5341 67.3173 49.5341 67.3173 49.0653 67.6565C48.7617 68.1115 48.7814 68.5681 48.7723 69.0963C48.7682 69.2653 48.7638 69.4342 48.759 69.6031C48.7569 69.7147 48.7569 69.7147 48.7547 69.8285C48.742 70.0007 48.742 70.0007 48.6611 70.0815C48.2049 70.1217 47.9461 70.0338 47.5547 69.8036C47.0604 69.5161 46.7332 69.3867 46.1553 69.4348C45.565 69.6173 45.1674 70.0321 44.8538 70.5526C44.6724 70.9291 44.6282 71.3024 44.7518 71.7035C44.9135 71.9329 45.0921 71.9627 45.3571 72.0417C45.4457 72.0688 45.5343 72.0959 45.6255 72.1238C45.6937 72.1434 45.7618 72.1629 45.832 72.1831C45.8354 72.3717 45.8353 72.5604 45.832 72.749C45.6952 72.8857 45.5293 72.8534 45.342 72.8601C44.8664 72.8545 44.5673 72.7448 44.2154 72.4256C43.8436 72.0103 43.6985 71.6439 43.708 71.0789C43.8149 70.1766 44.3349 69.4732 45.0208 68.9129C45.0751 68.8717 45.1294 68.8306 45.1853 68.7882C45.2305 68.7529 45.2756 68.7175 45.3221 68.6811C45.8551 68.3413 46.5977 68.3965 47.2062 68.4648C47.4001 68.5087 47.5827 68.5643 47.772 68.6265C47.7595 68.4915 47.7595 68.4915 47.7467 68.3537C47.7495 67.8289 47.9812 67.3893 48.3271 67.0029C48.9381 66.4395 49.7803 66.0889 50.5856 66.4709Z" fill="#F6FAF9"/>
<path d="M56.5624 77.4827C56.9024 77.5285 57.0886 77.6727 57.3101 77.9222C57.7785 78.5884 57.7851 79.3185 57.7142 80.1047C57.5611 80.8032 57.1044 81.4909 56.5018 81.883C56.2896 81.9083 56.2896 81.9083 56.0976 81.883C55.9359 81.7213 55.9359 81.7213 55.9062 81.4962C55.9429 81.1756 56.0467 81.0451 56.2492 80.7968C56.7052 80.1981 56.8381 79.6407 56.7443 78.8922C56.6106 78.614 56.6106 78.614 56.4209 78.4072C56.1836 78.1275 56.1836 78.1275 56.1532 77.8717C56.1911 77.5832 56.2803 77.5276 56.5624 77.4827Z" fill="#F4F8F8"/>
<path d="M49.2269 77.5181C49.3886 77.6797 49.3886 77.6797 49.4239 77.8616C49.3734 78.1791 49.1956 78.3326 48.9844 78.5689C48.7364 78.9747 48.7526 79.4029 48.8228 79.8622C48.9815 80.3148 49.2102 80.8154 49.5502 81.1555C49.5705 81.4384 49.5705 81.4384 49.5502 81.7213C49.3886 81.883 49.3886 81.883 49.1713 81.9335C48.7523 81.8544 48.575 81.5752 48.3378 81.2363C48.2138 81.0265 48.109 80.8142 48.0144 80.5897C47.9855 80.5297 47.9565 80.4696 47.9267 80.4078C47.8317 80.1221 47.8251 79.8518 47.8275 79.554C47.8279 79.4964 47.8282 79.4388 47.8285 79.3794C47.8437 78.6746 48.0633 78.1158 48.5702 77.609C48.8015 77.4865 48.9691 77.49 49.2269 77.5181Z" fill="#F5F9F9"/>
<path d="M55.6126 30.6354C55.8253 30.8344 56.0166 31.0394 56.1784 31.282C56.1784 31.3354 56.1784 31.3887 56.1784 31.4437C55.9248 31.4099 55.6734 31.3752 55.4225 31.3244C54.8334 31.2051 54.2574 31.1676 53.6575 31.1507C53.5651 31.1476 53.4727 31.1444 53.3776 31.1412C53.1526 31.1337 52.9276 31.1267 52.7026 31.1204C52.7789 31.029 52.8555 30.9379 52.9322 30.8469C52.9748 30.7962 53.0174 30.7454 53.0613 30.6931C53.7309 29.9585 54.8694 30.1155 55.6126 30.6354Z" fill="#27AE60"/>
<path d="M68.9497 48.5801C69.0697 48.6602 69.0697 48.6602 69.1922 48.7418C69.2074 49.0348 69.2074 49.0348 69.1922 49.3076C69.1389 49.3076 69.0855 49.3076 69.0305 49.3076C69.0039 49.3877 68.9772 49.4677 68.9497 49.5501C68.9497 49.23 68.9497 48.9099 68.9497 48.5801Z" fill="#FEFFED"/>
<path d="M40.8203 17.6214C41.007 17.6214 41.1938 17.6214 41.3861 17.6214C41.3061 17.6614 41.3061 17.6614 41.2245 17.7022C41.2511 17.7823 41.2778 17.8623 41.3053 17.9447C41.1453 17.8914 40.9852 17.838 40.8203 17.7831C40.8203 17.7297 40.8203 17.6764 40.8203 17.6214Z" fill="#FEFBEB"/>
</svg>
