<svg width="618" height="597" viewBox="0 0 618 597" fill="none" xmlns="http://www.w3.org/2000/svg">
<path d="M246.693 363.996L267.191 362.364L300.951 359.1L369.919 362.364L412.361 420.193L408.425 448.827C408.425 448.827 410.189 448.784 410.477 448.827C413.896 449.342 417.311 449.874 420.725 450.414C421.373 450.516 422.021 450.618 422.669 450.72C461.367 456.792 461.367 456.792 470.882 467.355C472.063 469.625 472.169 471.474 471.364 473.884C465.784 482.762 451.827 485.684 442.208 487.997C433.401 490.005 424.54 491.616 415.599 492.947C414.82 493.064 414.82 493.064 414.026 493.183C387.442 497.158 360.846 500.096 333.941 500.729C333.328 500.744 333.328 500.744 332.703 500.759C323.619 500.97 314.54 501.028 305.455 500.933C305.067 500.929 304.679 500.925 304.28 500.921C266.982 500.507 228.495 497.5 192.116 489.274C191.275 489.084 191.275 489.084 190.417 488.89C164.946 483.028 164.946 483.028 158.838 475.283C157.608 473.3 157.559 471.48 157.873 469.221C160.352 464.01 167.015 461.331 172.264 459.386C189.39 453.316 210.851 448.355 229.253 448.701C229 448.223 229 448.223 228.742 447.735C226.974 443.948 226.573 436.47 226.919 434.184L227.565 429.807L226.118 425.143C226.118 425.143 226.342 403.01 225.153 398.094C223.316 390.596 246.693 363.996 246.693 363.996ZM395.644 462.691C394.922 463.01 394.45 463.608 394.679 465.023C396.994 465.792 399.316 466.516 401.667 467.175C411.227 469.953 414.092 470.681 417.829 474.351C418.309 476.05 418.482 477.133 417.89 478.81C406.873 491.029 377.095 491.17 361.401 492.539C361.012 492.574 360.622 492.609 360.221 492.645C329.81 495.362 298.245 495.158 267.836 492.539C267.233 492.488 267.233 492.488 266.618 492.436C230.925 489.409 230.925 489.409 216.562 482.716C216.256 482.574 215.95 482.432 215.635 482.286C213.583 481.237 212.513 480.038 211.408 478.081C211.174 476.499 211.26 475.607 211.926 474.148C213.136 472.589 214.569 471.897 216.351 471.086C216.693 470.926 217.035 470.767 217.387 470.602C222.726 468.17 228.305 466.647 234.076 465.49C234.076 464.874 234.076 464.258 234.076 463.624C233.508 462.971 233.508 462.971 231.907 463.067C229.624 463.097 227.557 463.564 225.364 464.149C224.966 464.253 224.569 464.358 224.159 464.465C217.84 466.176 210.276 468.312 206.103 473.516C205.263 474.969 205.318 476.005 205.62 477.615C207.337 481.409 211.712 483.258 215.447 484.873C229.95 490.333 245.708 491.989 261.084 493.471C261.828 493.547 261.828 493.547 262.586 493.624C279.241 495.313 296.04 495.515 312.77 495.485C314.253 495.483 315.737 495.481 317.22 495.48C332.627 495.465 347.972 495.232 363.33 493.938C363.747 493.903 364.164 493.868 364.594 493.832C401.233 490.906 411.917 488.246 422.291 480.005C423.512 478.475 424.159 477.236 423.93 475.283C422.836 472.022 419.999 470.282 416.985 468.754C410.533 465.679 402.822 463.295 395.644 462.691Z" fill="#FCFDFC"/>
<path d="M206.41 352.98C207.017 352.979 207.017 352.979 207.635 352.978C209.004 352.977 210.373 352.979 211.743 352.981C212.728 352.981 213.714 352.98 214.699 352.98C217.419 352.979 220.139 352.98 222.859 352.983C225.787 352.985 228.716 352.984 231.644 352.984C236.722 352.984 241.8 352.985 246.878 352.988C252.205 352.99 257.532 352.992 262.86 352.993C263.19 352.993 263.521 352.993 263.862 352.993C265.543 352.993 267.223 352.993 268.903 352.993C280.814 352.994 292.724 352.997 304.635 353.002C316.207 353.006 327.78 353.009 339.353 353.011C339.709 353.011 340.066 353.011 340.433 353.011C344.014 353.012 347.594 353.013 351.175 353.013C358.47 353.014 365.764 353.016 373.058 353.017C373.394 353.017 373.729 353.017 374.075 353.017C396.483 353.022 420.096 353.029 442.504 353.037C442.987 353.037 442.632 353.999 441.781 355.369C440.929 356.739 440.929 356.739 439.731 358.167C438.351 359.833 437.109 361.455 435.993 363.297C436.552 363.294 437.112 363.292 437.688 363.289C439.782 363.281 441.876 363.276 443.971 363.271C444.873 363.269 445.776 363.266 446.679 363.262C447.984 363.256 449.289 363.253 450.594 363.251C450.991 363.249 451.388 363.247 451.797 363.244C459.252 363.243 459.252 363.243 461.404 364.55C462.037 365.629 462.037 365.629 462.037 367.086C461.555 368.427 461.555 368.427 460.81 368.968C459.099 369.534 457.419 369.499 455.632 369.504C454.829 369.515 454.027 369.527 453.224 369.539C451.969 369.552 450.714 369.564 449.459 369.572C439.594 369.552 433.823 371.925 431.17 374.023C429 376.122 427.757 380.039 427.131 383.759C426.93 384.812 426.727 385.865 426.523 386.917C426.416 387.478 426.31 388.038 426.2 388.615C424.044 399.769 421.078 410.706 417.953 421.636C417.671 422.626 417.389 423.616 417.107 424.607C410.559 447.585 410.559 447.585 408.985 449.108C407.898 449.077 406.813 449.013 405.729 448.933C404.838 448.87 404.838 448.87 403.928 448.805C402.526 448.67 401.194 448.474 399.821 448.175C399.961 447.777 399.961 447.777 400.104 447.371C400.367 446.618 400.626 445.863 400.882 445.107C401.188 444.211 401.512 443.321 401.841 442.433C402.808 438.188 402.803 432.689 400.594 428.799C400.103 428.091 399.596 427.392 399.068 426.709C397.763 424.978 397.763 424.978 397.41 423.924C397.826 422.771 397.826 422.771 398.525 421.563C400.322 418.398 400.695 415.869 400.304 412.265C399.191 408.649 397.591 405.292 394.305 403.083C394.037 402.899 393.769 402.714 393.493 402.524C392.427 401.914 391.333 401.493 390.175 401.072C390.13 400.479 390.13 400.479 390.083 399.874C389.523 394.69 388.033 389.779 383.966 386.09C381.237 384.076 378.616 382.941 375.194 382.738C373.977 382.545 373.977 382.545 372.813 381.951C371.635 380.261 370.753 378.524 369.849 376.688C367.676 372.313 363.809 370.423 359.239 368.831C357.289 368.407 355.59 368.376 353.603 368.393C348.685 368.411 345.888 368.054 342.172 364.802C338.672 361.749 333.786 360.801 329.195 360.848C328.852 360.845 328.508 360.841 328.155 360.838C324.75 360.85 321.741 361.608 318.585 362.86C318.178 363.019 317.771 363.178 317.351 363.342C316.406 363.688 316.626 363.763 315.661 364.23C314.696 364.696 312.868 364.034 311.2 363.122C305.928 360.479 299.756 360.016 294.048 361.723C291.049 362.832 287.924 364.19 285.662 366.447C283.891 368.167 282.718 369.108 280.147 369.13C279.253 369.083 278.361 369.023 277.469 368.952C271.486 368.717 267.04 369.74 262.336 373.579C260.281 375.586 258.751 377.771 257.967 380.494C257.062 381.951 257.062 381.951 255.842 382.381C254.826 382.605 253.807 382.815 252.786 383.013C248.797 383.903 245.555 386.306 243.076 389.413C240.962 393.063 240.962 393.063 240.216 397.086C240.246 398.55 240.165 399.674 239.7 401.072C238.462 402.129 237.189 402.826 235.744 403.594C232.518 405.371 231.037 408 229.907 411.35C228.883 415.567 229.447 419.171 231.501 422.991C231.819 423.453 232.137 423.915 232.465 424.39C232.301 425.981 230.278 427.31 229.33 428.588C227.401 430.453 226.919 433.718 226.919 434.417C222.096 419.727 219.119 406.669 216.399 392.794C216.283 392.203 216.167 391.612 216.048 391.003C215.831 389.89 215.614 388.776 215.398 387.663C213.924 378.491 210.28 373.091 207.868 371.691C205.457 370.292 200.63 369.767 196.714 369.711C195.968 369.696 195.223 369.68 194.478 369.665C193.318 369.643 192.159 369.622 190.999 369.604C189.869 369.585 188.74 369.561 187.61 369.536C187.267 369.532 186.923 369.528 186.569 369.524C184.497 369.475 181.503 369.36 180.86 368.427C180.217 367.494 180.112 365.961 180.86 364.696C181.825 363.064 188.16 363.233 191.455 363.251C192.122 363.252 192.122 363.252 192.801 363.253C194.207 363.256 195.612 363.262 197.017 363.268C197.975 363.27 198.934 363.272 199.892 363.274C202.229 363.279 204.567 363.287 206.904 363.297C206.602 362.78 206.3 362.262 205.99 361.729C205.82 361.438 205.65 361.147 205.475 360.848C204.876 359.872 204.184 359.012 203.437 358.138C202.221 356.618 200.634 353.503 201.599 353.27C202.563 353.037 202.322 352.804 206.41 352.98Z" fill="#654321"/>
<path d="M336.451 368.303C339.827 370.023 343.101 372.523 344.84 375.887C345.11 375.786 345.38 375.685 345.658 375.581C350.399 373.989 355.523 373.632 360.153 375.738C363.238 377.489 365.41 379.461 366.732 382.717C367.215 384.524 367.147 386.155 367.025 388.013C367.411 387.986 367.796 387.959 368.194 387.931C372.697 387.752 376.588 388.335 380.144 391.199C383.072 394.209 384.171 397.273 384.053 401.377C383.852 402.87 383.285 404.004 382.459 405.268C382.857 405.316 383.255 405.364 383.665 405.414C387.888 406.216 390.965 407.756 393.521 411.185C394.443 413.963 394.662 417.024 393.28 419.696C390.382 423.217 386.87 423.435 382.459 423.923C382.295 424.803 382.295 424.803 382.127 425.701C382.035 426.196 382.035 426.196 381.941 426.701C381.89 427.687 381.89 427.687 382.551 428.468C383.668 429.216 384.304 429.211 385.654 429.169C386.08 429.161 386.506 429.152 386.945 429.144C388.181 429.057 389.349 428.862 390.567 428.645C391.634 428.513 391.634 428.513 392.587 428.586C394.794 430.493 395.841 432.499 396.125 435.327C396.176 440.146 395.535 443.574 392.105 447.241C387.578 450.21 383.516 451.023 378.118 450.972C377.979 452.395 377.92 453.75 378.118 455.169C379.447 456.536 380.719 456.651 382.579 456.714C384.86 456.643 387.011 456.199 389.211 455.635C389.717 460.454 388.149 464.758 385.232 468.664C381.924 472.413 377.775 474.26 372.813 475.223C371.518 475.279 370.252 475.258 368.955 475.223C368.907 474.722 368.86 474.221 368.811 473.705C368.739 473.035 368.666 472.365 368.593 471.696C368.563 471.367 368.533 471.039 368.503 470.7C368.219 468.221 367.462 466.591 366.061 464.496C365.097 464.476 364.132 464.477 363.167 464.496C362.485 465.047 362.485 465.047 362.672 466.611C362.69 467.664 362.715 468.715 362.746 469.767C362.819 474.494 361.35 478.008 358.344 481.752C354.172 485.803 347.902 487.431 342.133 487.525C334.877 487.511 329.699 486.015 324.252 481.198C318.173 474.979 318.096 467.132 318.104 459.105C318.099 458.143 318.094 457.181 318.089 456.219C318.076 453.622 318.073 451.024 318.072 448.427C318.071 446.803 318.068 445.179 318.064 443.556C318.051 437.889 318.045 432.223 318.046 426.557C318.047 421.276 318.031 415.995 318.009 410.714C317.99 406.175 317.982 401.636 317.983 397.097C317.983 394.388 317.979 391.679 317.964 388.97C317.95 386.426 317.95 383.883 317.96 381.339C317.962 380.405 317.958 379.472 317.949 378.538C317.938 377.264 317.945 375.992 317.956 374.718C317.949 374.348 317.941 373.977 317.934 373.596C317.96 372.235 318.019 371.111 318.924 370.025C323.771 365.996 330.768 365.955 336.451 368.303Z" fill="#D8A0A6"/>
<path d="M300.981 367.319C301.345 367.312 301.71 367.306 302.085 367.299C305.74 367.328 311.079 369.126 311.561 370.758C312.044 372.39 311.882 373.212 311.858 374.574C311.86 374.962 311.863 375.35 311.866 375.75C311.872 377.053 311.861 378.355 311.85 379.657C311.851 380.59 311.853 381.523 311.856 382.456C311.861 384.994 311.851 387.531 311.837 390.068C311.826 392.725 311.827 395.382 311.827 398.039C311.825 402.505 311.814 406.972 311.796 411.438C311.776 416.593 311.768 421.748 311.766 426.903C311.764 432.397 311.755 437.891 311.743 443.385C311.74 444.964 311.738 446.543 311.737 448.122C311.734 450.612 311.726 453.101 311.714 455.591C311.711 456.502 311.709 457.412 311.709 458.323C311.705 466.661 311.392 474.393 305.171 480.819C302.875 482.848 300.388 484.23 297.575 485.483C296.983 485.773 296.983 485.773 296.38 486.068C291.406 488.205 284.41 488.251 279.308 486.401C278.97 486.252 278.631 486.103 278.283 485.949C277.915 485.791 277.547 485.632 277.168 485.469C272.361 483.145 269.355 479.637 267.672 474.757C267.613 474.043 267.576 473.328 267.554 472.613C267.538 472.201 267.522 471.788 267.506 471.364C267.476 470.496 267.449 469.627 267.423 468.759C267.406 468.347 267.39 467.936 267.373 467.512C267.361 467.135 267.349 466.758 267.336 466.369C267.272 465.324 267.272 465.324 266.226 464.497C265.033 464.431 265.033 464.431 263.814 464.963C261.857 467.382 261.347 469.266 261.131 472.279C261.091 472.829 261.051 473.379 261.009 473.946C260.965 474.578 260.965 474.578 260.92 475.223C256.099 475.644 251.973 474.669 247.978 471.966C243.883 468.613 241.188 464.491 240.182 459.367C240.086 458.095 240.108 456.913 240.182 455.636C240.619 455.79 241.057 455.944 241.508 456.102C244.441 456.907 247.92 457.212 250.717 455.949C251.06 455.692 251.403 455.435 251.757 455.17C251.943 453.696 251.964 452.773 251.275 451.439C250.315 451.332 249.354 451.232 248.39 451.168C244.327 450.897 240.876 450.498 237.77 447.708C234.484 443.916 233.493 440.482 233.912 435.582C234.49 432.898 235.606 430.775 237.288 428.587C237.915 428.664 238.541 428.741 239.187 428.82C243.273 429.35 243.273 429.35 247.205 428.529C248.023 427.645 248.023 427.645 248.109 426.226C248.04 425.774 247.97 425.322 247.898 424.856C246.434 423.912 246.083 423.822 244.432 423.748C241.347 423.462 238.889 422.45 236.836 420.163C235.313 418.065 235.042 416.175 235.359 413.663C236.312 410.388 238.63 408.319 241.629 406.668C243.374 406.055 245.113 405.614 246.934 405.269C246.775 404.913 246.616 404.557 246.452 404.19C245.611 401.192 245.392 398.158 246.813 395.3C247.16 394.728 247.521 394.164 247.898 393.61C248.177 393.196 248.456 392.782 248.742 392.356C251.236 389.878 254.432 388.091 258.045 387.961C259.488 387.956 260.926 387.973 262.367 388.013C262.386 387.573 262.386 387.573 262.405 387.124C262.685 383.045 263.71 380.476 266.768 377.608C270.349 374.737 274.066 374.227 278.633 374.316C281.096 374.586 283.267 375.377 285.517 376.354C285.655 375.998 285.792 375.643 285.934 375.276C287.444 371.824 290.599 369.468 294.108 368.047C296.374 367.386 298.632 367.346 300.981 367.319Z" fill="#D8A0A6"/>
<path d="M263.607 104.761C264.691 105.552 265.701 106.383 266.708 107.263C267.004 107.495 267.3 107.728 267.605 107.968C271.515 111.288 273.977 116.759 274.53 121.728C275.005 129.556 272.865 135.923 267.492 141.861C266.756 142.616 266.013 143.365 265.261 144.105C264.965 144.403 264.668 144.702 264.363 145.009C255.925 152.836 243.268 153.029 232.273 153.182C212.143 153.062 200.393 155.997 194.847 161.827C189.3 167.657 186.011 178.112 186.546 187.733C187.079 193.713 189.202 199.361 193.852 203.499C206.434 213.2 225.596 213.691 240.859 214.785C241.421 214.825 241.984 214.866 242.564 214.907C243.611 214.981 244.658 215.051 245.706 215.117C253.496 215.639 253.496 215.639 256.128 217.353C258.108 220.256 257.591 223.91 257.183 227.234C257.147 227.596 257.111 227.958 257.074 228.331C256.77 230.94 256.133 232.68 254.169 234.58C252.77 235.034 251.478 235.109 250.009 235.104C249.635 235.105 249.26 235.107 248.875 235.108C247.545 235.051 246.238 234.94 244.914 234.809C244.48 234.766 244.045 234.723 243.597 234.679C243.266 234.646 242.935 234.613 242.594 234.58C241.992 240.908 241.412 247.237 240.857 253.569C240.613 256.34 240.364 259.111 240.116 261.882C239.9 264.297 239.685 266.711 239.475 269.126C239.269 271.494 239.058 273.862 238.843 276.229C238.763 277.122 238.685 278.015 238.609 278.909C238.502 280.155 238.389 281.4 238.274 282.646C238.245 283.007 238.215 283.368 238.185 283.74C237.914 286.565 237.502 289.87 235.359 291.942C230.581 293.558 223.45 292.568 218.841 290.776C217.514 290.077 217.514 290.077 217.032 289.144C216.761 284.681 217.235 280.239 217.703 275.803C217.774 275.108 217.845 274.412 217.916 273.716C218.065 272.26 218.216 270.804 218.369 269.348C218.559 267.535 218.745 265.721 218.929 263.908C219.707 256.283 220.54 248.666 221.456 241.056C221.517 240.539 221.517 240.539 221.58 240.012C221.696 239.046 221.813 238.081 221.932 237.115C221.999 236.567 222.065 236.019 222.134 235.455C222.337 234.113 222.337 234.113 222.82 232.714C222.302 232.697 221.784 232.679 221.25 232.661C220.558 232.631 219.865 232.6 219.172 232.568C218.833 232.558 218.493 232.547 218.143 232.536C215.702 232.417 213.88 231.996 211.727 230.849C210.804 229.49 210.664 228.574 210.862 226.977C210.907 226.598 210.951 226.219 210.997 225.829C211.075 225.24 211.075 225.24 211.154 224.64C211.224 224.06 211.224 224.06 211.295 223.468C211.563 221.259 211.875 219.058 212.209 216.858C211.896 216.813 211.584 216.769 211.261 216.724C198.921 214.943 187.28 212.077 179.368 201.887C174.709 195.037 172.706 187.546 171.214 179.549C170.422 182.58 170.063 185.374 170.069 188.497C170.069 188.923 170.069 189.348 170.069 189.787C170.138 193.762 170.809 197.515 172.725 201.087C173.143 201.934 173.143 201.934 173.143 203.333C168.237 202.669 164.674 198.142 161.842 194.522C156.609 187.034 155.447 176.964 157.06 168.199C159.403 158.922 165.065 151.171 173.445 146.087C181.825 141.622 191.62 140.632 201.028 140.649C202.309 140.651 203.59 140.645 204.871 140.636C208.047 140.616 211.224 140.611 214.401 140.605C217.102 140.6 219.803 140.589 222.505 140.57C223.752 140.564 225 140.566 226.248 140.568C232.524 140.548 238.729 140.126 244.342 137.139C244.815 136.905 244.815 136.905 245.297 136.666C250.608 133.974 253.288 129.955 255.133 124.518C256.253 120.099 255.755 115.778 253.564 111.746C251.03 107.813 247.693 105.4 243.513 103.233C243.21 103.024 242.906 102.815 242.594 102.599C242.594 102.137 242.594 101.676 242.594 101.2C249.315 99.4668 257.84 101.21 263.607 104.761Z" fill="#FEFEFD"/>
<path d="M337.124 171.155C337.45 171.389 337.776 171.624 338.113 171.865C341.673 174.627 343.567 177.864 344.78 182.085C345.317 183.907 345.317 183.907 346.577 185.262C347.595 185.619 348.608 185.843 349.663 186.078C354.683 187.868 359.58 190.004 363.409 193.686C367.395 197.238 374.587 196.692 379.796 197.171C381.202 197.301 382.609 197.433 384.015 197.567C388.01 197.944 392.005 198.318 396 198.688C398.455 198.916 400.91 199.147 403.365 199.381C404.292 199.468 405.219 199.554 406.146 199.639C424.411 201.308 424.411 201.308 430.34 207.429C433.067 210.825 434.134 214.105 434.125 218.345C434.126 218.928 434.127 219.512 434.129 220.114C434.064 221.522 434.064 221.522 433.582 221.988C432.18 221.977 430.795 221.931 429.396 221.86C428.947 221.838 428.498 221.816 428.035 221.793C421.995 221.473 415.973 220.931 409.95 220.403C408.191 220.25 406.431 220.098 404.672 219.947C401.659 219.687 398.646 219.425 395.633 219.162C391.269 218.782 386.905 218.405 382.541 218.028C367.9 216.763 353.261 215.486 338.625 214.168C334.327 213.781 330.028 213.395 325.729 213.011C324.947 212.941 324.947 212.941 324.148 212.869C300.004 210.713 275.83 208.989 251.649 207.277C243.004 206.664 234.36 206.042 225.719 205.373C224.487 205.278 223.254 205.184 222.021 205.093C220.409 204.973 218.798 204.847 217.187 204.72C216.732 204.687 216.278 204.654 215.81 204.621C212.802 204.373 212.802 204.373 211.727 203.334C211.302 199.029 213.479 195.054 216.164 191.78C220.057 187.743 225.181 184.922 230.959 184.563C231.64 184.561 232.321 184.566 233.002 184.576C233.377 184.579 233.752 184.582 234.138 184.585C238.771 184.652 243.38 185.025 247.995 185.393C248.948 185.467 249.901 185.54 250.853 185.613C253.333 185.803 255.813 185.997 258.292 186.193C262.277 186.506 266.263 186.813 270.249 187.12C271.633 187.228 273.016 187.337 274.4 187.446C275.249 187.512 276.098 187.578 276.947 187.644C277.518 187.69 277.518 187.69 278.099 187.737C281.887 188.028 284.619 188.156 287.96 186.195C292.941 183.454 298.208 182.26 303.845 181.415C303.943 181.033 303.943 181.033 304.043 180.644C305.45 175.878 308.797 172.075 313.193 169.566C320.966 165.613 329.979 165.881 337.124 171.155Z" fill="#654321"/>
<path d="M289.248 219.734C290.873 222.013 291.018 224.985 291.242 227.668C291.312 228.433 291.383 229.198 291.453 229.963C291.507 230.568 291.507 230.568 291.562 231.185C292.263 239.007 293.123 246.804 294.101 254.596C294.159 255.061 294.217 255.525 294.277 256.003C294.812 260.28 295.353 264.556 295.897 268.832C296.2 271.212 296.499 273.594 296.795 275.975C296.906 276.864 297.019 277.752 297.134 278.641C298.977 292.904 298.977 292.904 297.093 295.675C295.763 296.527 294.702 296.726 293.124 296.731C292.736 296.732 292.348 296.734 291.949 296.735C291.548 296.731 291.146 296.728 290.733 296.724C290.341 296.728 289.949 296.731 289.545 296.735C286.452 296.725 283.146 296.596 280.484 294.946C278.283 291.626 278.328 286.894 277.801 283.083C275.797 282.544 273.841 282.513 271.773 282.5C271.407 282.49 271.04 282.481 270.663 282.471C269.175 282.461 267.934 282.503 266.565 283.097C265.347 284.46 264.692 285.995 263.935 287.63C260.961 293.58 260.961 293.58 258.027 294.742C253.477 295.376 249.235 294.89 245.247 292.672C243.825 291.24 243.876 289.471 243.905 287.542C244.471 282.567 246.517 277.564 248.133 272.825C248.729 271.079 249.317 269.331 249.906 267.584C250.024 267.232 250.143 266.88 250.265 266.518C251.299 263.442 252.286 260.352 253.265 257.258C255.211 251.144 257.238 245.056 259.282 238.972C259.648 237.881 260.013 236.79 260.377 235.698C260.894 234.148 261.416 232.599 261.938 231.051C262.092 230.59 262.245 230.129 262.402 229.654C265.393 220.85 265.393 220.85 268.638 217.792C273.54 216.123 284.895 216.909 289.248 219.734ZM274.425 250.437C273.029 254.553 271.758 258.685 270.657 262.884C270.552 263.279 270.446 263.675 270.338 264.083C269.86 265.942 269.46 267.626 269.602 269.558C271.921 270.488 273.423 270.427 275.872 270.025C276.015 263.441 275.595 256.987 274.908 250.437C274.748 250.437 274.589 250.437 274.425 250.437Z" fill="#FEFEFE"/>
<path d="M343.483 226.594C346.543 229.491 347.767 232.998 347.832 237.057C347.842 238.009 347.849 238.962 347.854 239.915C347.864 240.393 347.874 240.87 347.884 241.362C347.898 243.945 347.867 245.909 346.287 248.105C344.44 249.296 342.912 249.198 340.771 249.184C340.384 249.182 339.997 249.181 339.598 249.179C336.445 249.124 333.295 248.866 330.371 247.639C329.093 245.785 329.042 244.092 328.76 241.91C328.56 240.492 328.56 240.492 326.995 239.711C325.488 239.633 325.488 239.633 324.101 239.711C322.874 241.942 322.351 243.627 322.775 246.153C323.463 248.093 324.904 249.17 326.513 250.437C327.124 250.926 327.124 250.926 327.747 251.425C328.647 252.138 329.549 252.848 330.454 253.556C337.362 259.018 343.475 264.367 344.704 273.282C345.365 280.136 344.752 288.038 340.499 293.809C335.186 299.041 328.324 299.494 321.147 299.58C317.296 299.574 314.042 299.346 310.597 297.54C310.179 297.342 309.762 297.144 309.331 296.941C305.549 294.987 302.928 292.301 301.494 288.358C301.301 287.691 301.118 287.021 300.951 286.347C300.842 285.914 300.732 285.482 300.62 285.036C300.189 280.789 299.731 275.065 302.102 271.292C303.204 270.157 304.131 270.038 305.708 269.93C310.194 269.871 315.429 269.875 319.278 272.356C319.968 274.357 319.947 276.353 320.06 278.45C320.104 279.874 320.104 279.874 321.208 280.751C322.875 281.023 322.875 281.023 324.584 280.751C325.894 279.443 326.023 278.47 326.272 276.67C326.011 272.163 322.672 269.447 319.425 266.606C318.576 265.876 317.723 265.15 316.867 264.428C316.283 263.934 316.283 263.934 315.688 263.43C315.212 263.029 315.212 263.029 314.727 262.621C309.581 258.28 305.246 253.48 304.733 246.608C304.379 239.533 304.711 231.997 309.421 226.19C318.005 217.237 334.225 219.622 343.483 226.594Z" fill="#FEFEFE"/>
<path d="M410.763 229.829C411.086 229.83 411.408 229.83 411.74 229.83C434.039 229.87 434.039 229.87 438.043 233.385C440.816 237.312 439.29 243.33 438.757 247.795C438.327 249.879 437.65 251.556 436.174 253.148C432.545 254.902 428.214 254.104 424.418 253.235C422.971 252.302 422.971 252.302 422.489 250.903C422.47 249.815 422.468 248.727 422.489 247.639C421.647 247.509 420.802 247.396 419.957 247.289C419.487 247.224 419.017 247.159 418.533 247.092C417.143 247.059 417.143 247.059 416.084 247.93C415.109 249.232 414.881 250.134 414.652 251.719C414.58 252.179 414.507 252.638 414.433 253.111C414.267 254.876 414.266 256.593 414.29 258.365C414.648 258.4 415.005 258.435 415.374 258.471C416.993 258.633 418.61 258.805 420.228 258.977C421.073 259.06 421.073 259.06 421.934 259.144C422.474 259.202 423.013 259.261 423.569 259.321C424.066 259.373 424.564 259.424 425.076 259.477C426.484 259.795 426.998 260.003 427.794 261.163C427.981 262.24 427.981 262.24 427.986 263.499C427.988 263.959 427.99 264.42 427.992 264.894C427.986 265.375 427.981 265.856 427.975 266.351C427.981 266.822 427.986 267.292 427.992 267.776C427.98 270.701 427.739 273.44 426.347 276.087C422.888 277.759 417.045 276.381 413.325 276.087C413.284 277.933 413.258 279.779 413.235 281.625C413.223 282.151 413.211 282.677 413.198 283.219C413.191 283.972 413.191 283.972 413.184 284.74C413.173 285.436 413.173 285.436 413.161 286.146C413.215 286.52 413.27 286.894 413.325 287.279C414.924 288.31 415.421 288.317 417.274 288.27C417.709 288.262 418.143 288.254 418.591 288.245C418.922 288.234 419.254 288.223 419.595 288.212C419.677 287.92 419.759 287.628 419.844 287.327C419.961 286.946 420.078 286.565 420.198 286.172C420.31 285.793 420.422 285.414 420.537 285.024C421.173 283.754 421.626 283.581 422.971 283.082C424.649 283.018 426.307 283.234 427.975 283.403C428.425 283.44 428.875 283.477 429.339 283.515C431.821 283.751 433.871 284.04 435.993 285.414C437.243 289.04 436.536 293.144 435.842 296.84C435.757 297.308 435.757 297.308 435.671 297.787C435.176 300.213 434.335 301.897 432.587 303.69C425.412 307.971 412.928 305.377 405.157 303.69C400.508 302.611 396.135 301.155 393.431 297.102C392.502 294.632 392.505 292.063 392.517 289.465C392.518 289.083 392.519 288.701 392.521 288.307C392.565 283.138 392.894 277.981 393.22 272.822C393.252 272.298 393.285 271.774 393.319 271.234C393.923 261.581 394.719 252.019 396.415 242.479C396.485 242.077 396.555 241.674 396.628 241.259C397.41 237.192 398.443 233.507 401.903 230.877C404.491 229.303 407.828 229.827 410.763 229.829Z" fill="#FEFEFE"/>
<path d="M362.86 224.679C363.32 224.717 363.779 224.755 364.253 224.794C365.222 224.875 366.19 224.957 367.158 225.04C368.601 225.163 370.044 225.281 371.488 225.399C376.298 225.8 381.097 226.268 385.886 226.861C386.323 226.912 386.761 226.963 387.212 227.016C390.147 227.398 392.437 228.004 394.686 229.98C395.788 231.831 395.73 233.328 395.662 235.425C395.661 235.784 395.66 236.142 395.66 236.512C395.615 239.334 395.452 242.302 393.582 244.577C391.739 245.927 390.094 245.835 387.854 245.831C387.274 245.832 386.694 245.833 386.097 245.834C384.515 245.777 383.049 245.572 381.494 245.306C381.462 246.159 381.462 246.159 381.429 247.03C381.137 254.175 380.607 261.299 380.025 268.426C379.919 269.721 379.815 271.015 379.713 272.31C379.189 278.973 378.623 285.629 377.858 292.27C377.802 292.771 377.746 293.272 377.688 293.788C377.633 294.25 377.577 294.712 377.52 295.187C377.472 295.587 377.425 295.987 377.376 296.4C377.06 298.017 376.749 299.473 375.34 300.474C373.009 301.185 370.502 300.955 368.08 300.949C367.239 300.96 367.239 300.96 366.38 300.972C360.851 300.975 360.851 300.975 358.344 299.404C355.142 294.307 357.158 286.472 357.724 280.761C357.81 279.874 357.895 278.987 357.98 278.1C358.203 275.782 358.43 273.464 358.658 271.147C358.888 268.798 359.115 266.448 359.342 264.099C359.598 261.451 359.854 258.804 360.113 256.156C360.511 252.075 360.901 247.994 361.238 243.907C360.925 243.855 360.612 243.804 360.289 243.75C359.026 243.539 357.766 243.315 356.505 243.091C355.833 242.981 355.833 242.981 355.148 242.869C354.717 242.791 354.287 242.712 353.843 242.632C353.249 242.529 353.249 242.529 352.642 242.425C351.3 241.935 350.877 241.351 350.145 240.176C348.799 236.272 349.293 230.062 350.627 226.185C352.762 222.724 359.259 224.37 362.86 224.679Z" fill="#FEFEFE"/>
<path d="M215.585 496.209C218.982 496.484 222.297 496.961 225.645 497.573C226.653 497.754 227.662 497.934 228.67 498.114C229.191 498.208 229.712 498.302 230.249 498.398C254.259 502.692 278.178 504.673 302.599 504.682C303.641 504.683 304.683 504.685 305.725 504.687C307.892 504.689 310.059 504.69 312.226 504.69C314.404 504.69 316.582 504.693 318.761 504.699C347.334 504.782 375.788 503.29 403.901 498.059C407.042 497.476 410.139 496.957 413.325 496.675C412.152 498.378 410.934 498.822 409.045 499.561C408.689 499.7 408.333 499.84 407.966 499.983C382.32 509.646 353.741 511.341 326.482 511.89C325.719 511.906 325.719 511.906 324.94 511.922C290.378 512.589 247.124 512.973 215.585 497.142C215.585 496.834 215.585 496.526 215.585 496.209Z" fill="#FCFDFC"/>
<path d="M288.17 309.315C288.73 309.362 288.73 309.362 289.301 309.409C290.604 309.729 290.965 310.034 291.787 311.064C292.173 312.464 292.173 312.464 292.456 314.159C292.56 314.764 292.664 315.37 292.772 315.994C292.876 316.634 292.98 317.274 293.084 317.913C293.193 318.559 293.302 319.204 293.412 319.849C293.68 321.428 293.942 323.008 294.199 324.588C294.912 321.917 295.615 319.249 296.158 316.54C296.272 315.973 296.272 315.973 296.388 315.396C296.54 314.628 296.688 313.859 296.833 313.089C296.946 312.532 296.946 312.532 297.062 311.964C297.127 311.633 297.191 311.302 297.257 310.961C297.575 310.131 297.575 310.131 299.022 309.198C300.99 309.045 302.262 309.001 304.129 309.597C305.997 311.204 306.132 313.243 306.588 315.552C306.684 316 306.78 316.448 306.879 316.91C307.069 317.796 307.254 318.683 307.436 319.572C307.817 321.406 308.242 323.229 308.668 325.054C308.731 324.671 308.794 324.288 308.858 323.893C309.097 322.462 309.342 321.032 309.592 319.604C309.751 318.684 309.902 317.764 310.052 316.843C310.155 316.261 310.258 315.68 310.363 315.08C310.454 314.546 310.545 314.011 310.639 313.46C311.134 311.813 311.787 310.897 313.008 309.664C314.078 309.302 314.078 309.302 315.179 309.227C315.542 309.194 315.905 309.161 316.279 309.127C317.51 309.209 318.24 309.495 319.278 310.131C321.791 314.992 318.878 323.635 317.985 328.665C317.679 330.395 317.384 332.125 317.09 333.856C316.897 334.964 316.704 336.071 316.511 337.178C316.423 337.692 316.336 338.205 316.245 338.734C315.097 345.123 315.097 345.123 312.861 346.948C311.307 347.536 310.264 347.538 308.607 347.382C308.109 347.342 307.61 347.302 307.096 347.261C305.614 346.939 305.261 346.693 304.327 345.574C303.949 344.574 303.949 344.574 303.675 343.43C303.573 343.018 303.471 342.606 303.366 342.181C303.265 341.753 303.165 341.324 303.061 340.882C302.855 340.031 302.647 339.18 302.439 338.329C302.35 337.952 302.261 337.575 302.169 337.187C301.945 336.224 301.945 336.224 301.433 335.314C301.38 335.571 301.326 335.827 301.271 336.091C301.026 337.261 300.778 338.43 300.529 339.599C300.445 340.002 300.361 340.405 300.275 340.821C299.354 345.123 299.354 345.123 298.54 346.507C296.611 347.493 294.253 347.588 292.119 347.294C291.037 346.934 290.469 346.684 289.804 345.77C288.223 342.302 287.49 338.662 286.723 334.965C286.577 334.275 286.43 333.585 286.283 332.896C285.925 331.209 285.574 329.522 285.225 327.833C285.052 327.001 284.877 326.17 284.702 325.338C282.291 313.877 282.291 313.877 282.624 311.53C284.254 309.576 285.625 309.069 288.17 309.315Z" fill="#FEFEFD"/>
<path d="M241.117 308.907C241.608 308.891 242.1 308.875 242.607 308.859C244.587 309.327 245.42 310.387 246.452 311.996C247.143 313.27 247.727 314.572 248.291 315.902C248.441 316.245 248.591 316.589 248.746 316.942C249.111 317.779 249.47 318.618 249.828 319.458C249.872 319.018 249.872 319.018 249.917 318.569C250.044 317.311 250.177 316.053 250.31 314.795C250.345 314.434 250.38 314.074 250.416 313.703C250.597 312.02 250.768 311.1 251.757 309.665C253.569 309.081 255.167 308.988 257.062 309.198C258.236 309.894 258.439 310.333 258.778 311.611C259.029 313.161 259.057 314.642 259.062 316.211C259.063 316.532 259.065 316.853 259.067 317.184C259.071 318.24 259.072 319.295 259.073 320.351C259.074 321.087 259.076 321.822 259.077 322.558C259.08 324.097 259.081 325.636 259.081 327.175C259.081 329.148 259.088 331.122 259.096 333.095C259.101 334.613 259.102 336.131 259.102 337.649C259.102 338.377 259.105 339.104 259.108 339.832C259.113 340.848 259.112 341.864 259.109 342.879C259.109 343.458 259.11 344.036 259.111 344.631C258.992 346.041 258.992 346.041 258.027 347.44C255.867 347.817 253.802 347.686 251.787 346.857C249.855 345.272 249.124 343.784 248.5 341.423C248.357 340.892 248.213 340.362 248.066 339.815C247.921 339.263 247.776 338.711 247.628 338.142C247.337 337.049 247.045 335.957 246.752 334.865C246.561 334.139 246.561 334.139 246.366 333.398C245.992 332.127 245.537 330.934 245.005 329.718C245.01 330.127 245.015 330.537 245.02 330.958C245.037 332.486 245.049 334.014 245.058 335.542C245.063 336.201 245.069 336.861 245.078 337.52C245.09 338.472 245.095 339.424 245.099 340.375C245.104 340.947 245.109 341.518 245.115 342.107C245.002 343.753 244.725 344.998 244.04 346.507C242.29 347.636 240.774 347.776 238.735 347.44C237.484 346.939 237.484 346.939 236.324 346.041C236.021 344.557 236.021 344.557 236.019 342.701C236.014 342.193 236.014 342.193 236.009 341.675C236.001 340.556 236.01 339.438 236.02 338.319C236.02 337.541 236.019 336.763 236.017 335.985C236.016 334.355 236.023 332.724 236.036 331.094C236.052 329.004 236.049 326.915 236.04 324.826C236.035 323.219 236.04 321.613 236.047 320.007C236.049 319.236 236.049 318.466 236.046 317.696C236.043 316.618 236.053 315.541 236.067 314.464C236.07 313.851 236.072 313.238 236.076 312.606C236.548 309.672 238.219 308.928 241.117 308.907Z" fill="#FEFEFC"/>
<path d="M407.565 310.383C408.943 311.384 409.626 312.39 410.432 313.863C410.654 315.634 410.654 315.634 410.613 317.477C410.607 318.09 410.601 318.704 410.594 319.335C410.432 320.858 410.432 320.858 409.468 321.791C403.36 322.518 403.36 322.518 401.287 321.181C400.696 320.421 400.696 320.421 399.822 318.993C398.777 318.552 398.777 318.552 397.892 318.527C397.29 320.326 397.341 322.124 397.346 323.994C397.346 324.34 397.345 324.685 397.345 325.042C397.344 325.771 397.346 326.921 397.347 327.23C397.348 327.54 397.289 329.302 397.286 330.419C397.286 331.128 397.345 331.999 397.346 332.709C397.345 333.042 397.344 333.376 397.343 333.72C397.35 335.158 397.418 336.272 397.892 337.647C398.688 337.801 399.484 337.955 400.304 338.114C400.463 336.575 400.622 335.036 400.786 333.45C400.085 333.364 400.055 333.305 399.339 333.217C398.944 332.831 398.803 332.63 398.616 332.284C398.496 332.443 398.019 329.023 398.134 328.786C398.05 327.888 398.066 327.511 398.134 326.921C398.202 326.331 398.262 325.835 398.857 325.056C398.857 325.056 399.822 324.382 401.604 324.436C402.028 324.439 402.453 324.441 402.891 324.443C403.33 324.453 403.77 324.463 404.223 324.473C404.666 324.475 405.109 324.477 405.566 324.48C408.836 324.517 408.836 324.517 409.95 325.056C411.57 329.756 410.919 337.17 409.468 341.845C408.563 343.477 408.563 343.477 407.538 344.643C407.25 344.989 406.961 345.335 406.664 345.692C403.481 348.155 398.836 347.698 394.999 347.441C392.343 346.942 390.285 345.879 388.729 343.71C387.241 338.941 387.618 333.676 387.639 328.757C387.644 327.298 387.639 325.841 387.632 324.382C387.633 323.444 387.634 322.505 387.636 321.567C387.634 321.137 387.632 320.707 387.63 320.264C387.68 313.573 387.68 313.573 390.025 311.094C394.894 308.163 402.351 308.269 407.565 310.383Z" fill="#FEFEFC"/>
<path d="M277.65 309.985C280.465 311.693 281.491 313.757 282.317 316.786C282.938 320.309 282.836 323.884 282.812 327.449C282.804 328.843 282.812 330.238 282.821 331.632C282.82 332.531 282.819 333.429 282.816 334.327C282.82 334.943 282.82 334.943 282.825 335.573C282.786 338.895 282.192 342.082 280.122 344.816C277.028 347.609 273.842 347.667 269.769 347.574C266.648 347.314 264.138 346.354 261.885 344.175C260.305 341.271 260.357 338.022 260.34 334.819C260.337 334.414 260.335 334.009 260.332 333.592C260.327 332.735 260.324 331.879 260.322 331.023C260.318 329.735 260.303 328.447 260.287 327.158C260.209 314.904 260.209 314.904 263.814 311.063C267.505 308.407 273.536 308.16 277.65 309.985ZM270.566 318.059C269.621 318.973 269.883 320.684 269.813 321.935C269.793 322.283 269.772 322.631 269.752 322.99C269.604 325.815 269.55 328.638 269.541 331.467C269.539 331.861 269.537 332.255 269.535 332.66C269.54 334.539 269.598 336.279 270.084 338.112C270.721 338.266 271.357 338.42 272.013 338.579C273.481 337.149 273.628 335.954 273.636 333.978C273.63 333.625 273.624 333.272 273.618 332.908C273.617 332.541 273.616 332.174 273.616 331.796C273.612 331.023 273.606 330.25 273.596 329.476C273.581 328.292 273.576 327.108 273.573 325.924C273.569 325.172 273.564 324.42 273.558 323.668C273.556 323.314 273.554 322.96 273.552 322.595C273.531 321.119 273.464 319.935 272.978 318.525C272.179 318.347 271.374 318.192 270.566 318.059Z" fill="#FEFEFC"/>
<path d="M215.645 308.966C216.054 308.971 216.463 308.976 216.885 308.981C217.996 309.199 217.996 309.199 218.846 309.675C219.797 311.145 219.722 312.73 219.775 314.417C219.8 314.941 219.8 314.941 219.825 315.476C219.864 316.337 219.896 317.199 219.926 318.06C221.368 316.665 221.89 314.822 222.59 312.997C223.191 311.547 223.685 310.673 224.965 309.702C227.189 308.793 229.183 308.948 231.47 309.607C232.465 310.132 232.465 310.132 232.947 311.065C232.764 314.891 231.48 317.955 229.955 321.451C228.087 325.917 228.43 328.887 230.174 333.363C230.328 333.773 230.481 334.184 230.64 334.607C231.284 336.323 231.949 338.029 232.637 339.729C233.665 342.289 234.127 344.221 233.912 346.974C230.928 347.936 227.636 347.681 224.748 346.508C223.08 344.419 222.504 341.865 221.764 339.367C221.633 338.933 221.501 338.498 221.366 338.051C221.043 336.984 220.724 335.917 220.408 334.849C219.823 335.309 219.823 335.309 219.886 336.195C219.899 336.76 219.899 336.76 219.912 337.336C219.918 337.747 219.924 338.158 219.93 338.581C219.947 339.449 219.966 340.318 219.987 341.186C219.992 341.599 219.997 342.011 220.003 342.437C220.011 342.815 220.019 343.193 220.027 343.582C219.913 344.77 219.608 345.499 218.961 346.508C217.559 347.433 216.53 347.554 214.861 347.383C214.317 347.337 214.317 347.337 213.761 347.291C212.288 346.855 211.719 346.278 210.762 345.109C210.514 343.626 210.514 343.626 210.505 341.852C210.501 341.528 210.496 341.204 210.492 340.87C210.481 339.801 210.484 338.733 210.489 337.664C210.486 336.919 210.483 336.174 210.48 335.43C210.475 333.87 210.477 332.31 210.484 330.75C210.492 328.753 210.481 326.757 210.464 324.76C210.453 323.222 210.454 321.685 210.458 320.147C210.458 319.411 210.455 318.675 210.448 317.939C210.44 316.908 210.447 315.879 210.458 314.848C210.458 314.263 210.459 313.677 210.459 313.074C210.999 310.326 212.766 308.864 215.645 308.966Z" fill="#FDFEFD"/>
<path d="M371.486 309.052C372.071 309.041 372.071 309.041 372.667 309.029C376.208 309.027 379.152 309.759 382.157 311.588C385.85 315.499 385.438 321.526 385.412 326.512C385.41 326.982 385.408 327.452 385.406 327.936C385.303 341.439 385.303 341.439 382.786 344.477C379.203 347.616 374 347.499 369.44 347.412C365.727 347.151 365.727 347.151 364.131 345.574C363.674 343.594 363.586 341.686 363.579 339.662C363.576 339.052 363.573 338.442 363.57 337.814C363.569 337.154 363.568 336.495 363.568 335.835C363.566 335.154 363.565 334.472 363.563 333.79C363.56 332.366 363.559 330.941 363.56 329.517C363.56 327.692 363.553 325.868 363.545 324.044C363.539 322.638 363.538 321.232 363.539 319.826C363.538 319.153 363.536 318.481 363.532 317.808C363.527 316.868 363.529 315.929 363.532 314.989C363.531 314.455 363.53 313.92 363.53 313.37C363.647 312.018 363.843 311.252 364.613 310.131C366.743 308.893 369.077 309.043 371.486 309.052ZM372.812 318.059C372.108 318.633 372.108 318.633 372.275 320.376C372.276 321.202 372.278 322.029 372.283 322.855C372.284 323.289 372.284 323.724 372.285 324.171C372.288 325.563 372.294 326.955 372.3 328.348C372.302 329.289 372.305 330.231 372.307 331.172C372.312 333.486 372.32 335.799 372.33 338.112C373.221 338.435 373.221 338.435 374.259 338.579C375.818 337.799 375.818 337.799 376.034 336.407C376.202 334.715 376.251 333.059 376.253 331.359C376.253 331.035 376.254 330.711 376.254 330.377C376.254 329.697 376.253 329.017 376.251 328.337C376.249 327.297 376.251 326.256 376.254 325.215C376.254 324.553 376.254 323.89 376.253 323.227C376.252 322.627 376.252 322.027 376.251 321.409C376.259 319.913 376.259 319.913 375.706 318.525C374.746 318.347 373.781 318.192 372.812 318.059Z" fill="#FEFEFD"/>
<path d="M347.36 309.013C347.845 309.011 347.845 309.011 348.34 309.009C349.018 309.008 349.697 309.011 350.375 309.017C351.411 309.024 352.447 309.017 353.483 309.008C354.145 309.009 354.807 309.011 355.469 309.013C356.067 309.015 356.665 309.016 357.281 309.018C358.924 309.211 359.589 309.489 360.755 310.598C361.476 312.225 361.364 313.988 361.238 315.728C360.68 316.807 360.189 317.675 359.308 318.526C358.627 318.599 357.942 318.643 357.257 318.674C356.845 318.693 356.433 318.713 356.009 318.733C355.359 318.761 355.359 318.761 354.696 318.789C354.262 318.809 353.827 318.829 353.379 318.85C352.301 318.899 351.223 318.947 350.145 318.993C350.132 319.682 350.122 320.372 350.115 321.062C350.109 321.446 350.103 321.83 350.098 322.226C350.033 323.186 350.033 323.186 350.627 323.656C351.856 323.788 353.084 323.865 354.318 323.946C355.45 324.123 355.45 324.123 356.415 325.055C356.51 326.242 356.549 327.367 356.535 328.553C356.541 329.036 356.541 329.036 356.546 329.528C356.537 331.933 356.537 331.933 355.45 332.984C354.09 333.177 354.09 333.177 352.496 333.275C351.968 333.31 351.439 333.345 350.895 333.381C350.488 333.404 350.081 333.426 349.662 333.45C349.662 334.835 349.662 336.22 349.662 337.647C350.342 337.665 351.022 337.682 351.722 337.7C352.613 337.731 353.504 337.762 354.395 337.793C354.843 337.803 355.291 337.814 355.752 337.825C356.183 337.841 356.613 337.858 357.057 337.875C357.652 337.893 357.652 337.893 358.259 337.912C359.551 338.16 359.978 338.494 360.755 339.513C361.306 342.014 361.389 343.657 360.273 346.042C358.594 347.665 356.124 347.116 353.855 347.125C353.498 347.124 353.142 347.123 352.774 347.122C351.691 347.12 350.609 347.131 349.526 347.143C348.835 347.144 348.144 347.144 347.453 347.144C346.511 347.146 346.511 347.146 345.55 347.148C343.733 346.96 342.848 346.723 341.463 345.575C339.995 342.953 340.369 339.787 340.388 336.886C340.388 336.313 340.388 335.74 340.388 335.15C340.39 333.939 340.394 332.727 340.4 331.516C340.408 329.677 340.41 327.838 340.409 325.999C340.412 324.819 340.415 323.638 340.418 322.458C340.418 321.914 340.419 321.37 340.42 320.81C340.429 319.271 340.46 317.733 340.499 316.195C340.503 315.672 340.506 315.149 340.51 314.61C340.56 313.217 340.639 311.952 340.981 310.598C342.917 309.003 344.879 309.02 347.36 309.013Z" fill="#FDFEFC"/>
<path d="M418.345 309.103C418.692 309.1 419.04 309.098 419.398 309.095C420.133 309.091 420.868 309.088 421.602 309.086C422.726 309.081 423.85 309.067 424.974 309.052C425.688 309.049 426.402 309.047 427.116 309.045C427.452 309.039 427.789 309.033 428.135 309.027C429.516 309.034 430.462 309.049 431.622 309.812C432.471 311.11 432.345 312.351 432.346 313.861C432.355 314.439 432.365 315.016 432.374 315.61C432.135 317.126 432.135 317.126 431.421 318.01C429.631 318.769 427.922 318.791 425.986 318.846C425.604 318.862 425.221 318.878 424.827 318.894C423.887 318.932 422.947 318.963 422.007 318.991C421.848 320.53 421.689 322.069 421.525 323.655C421.931 323.672 422.338 323.69 422.757 323.708C423.285 323.739 423.814 323.769 424.358 323.801C424.884 323.828 425.41 323.855 425.952 323.883C426.401 323.962 426.85 324.04 427.312 324.121C428.43 325.743 428.394 326.408 428.367 328.319C428.364 328.809 428.361 329.3 428.358 329.805C428.277 331.117 428.277 331.117 427.794 332.516C426.302 333.238 424.724 333.189 423.075 333.318C422.021 333.34 422.021 333.34 421.525 333.915C421.574 334.808 421.574 334.808 421.736 335.81C421.825 336.416 421.915 337.022 422.007 337.646C422.617 337.663 423.227 337.681 423.855 337.699C424.656 337.729 425.457 337.76 426.257 337.792C426.659 337.802 427.061 337.813 427.475 337.824C427.862 337.84 428.249 337.857 428.648 337.874C429.182 337.892 429.182 337.892 429.727 337.911C430.955 338.168 431.383 338.547 432.135 339.511C432.686 342.013 432.769 343.655 431.653 346.04C430 347.638 427.638 347.115 425.407 347.123C424.889 347.122 424.889 347.122 424.36 347.12C423.312 347.119 422.265 347.13 421.217 347.142C420.548 347.143 419.878 347.143 419.209 347.143C418.602 347.144 417.994 347.145 417.368 347.147C415.146 346.91 413.919 346.148 412.361 344.641C411.884 342.305 411.808 339.998 411.815 337.624C411.814 337.269 411.813 336.914 411.813 336.548C411.812 335.398 411.815 334.249 411.819 333.099C411.819 332.707 411.82 332.316 411.821 331.912C411.832 326.719 411.888 321.529 412.06 316.339C412.075 315.819 412.089 315.3 412.105 314.765C412.123 314.292 412.142 313.819 412.161 313.331C412.184 312.72 412.184 312.72 412.207 312.097C412.361 311.063 412.361 311.063 413.326 309.664C415.025 309.116 416.575 309.114 418.345 309.103Z" fill="#FDFEFD"/>
<path d="M142.758 164.627C143.077 164.781 143.395 164.935 143.723 165.093C143.706 165.604 143.706 165.604 143.689 166.124C143.476 178.058 145.838 190.032 154.333 199.138C154.77 199.625 154.77 199.625 155.215 200.122C160.604 205.771 168.518 209.026 176.01 211.181C177.484 211.73 177.484 211.73 178.448 213.129C166.432 213.441 154.423 212.562 145.11 204.282C139.142 198.031 137.281 190.225 137.272 181.999C137.255 181.169 137.255 181.169 137.237 180.323C137.218 174.967 138.353 169.871 141.794 165.56C142.112 165.252 142.43 164.944 142.758 164.627Z" fill="#FDFEFA"/>
<path d="M302.398 411.333C302.875 411.794 302.875 411.794 303.362 412.265C303.14 415.279 303.14 415.279 301.915 416.463C300.681 416.558 299.474 416.611 298.238 416.638C294.402 416.797 292.014 417.471 289.014 419.844C286.209 423.16 285.104 426.668 285.517 430.92C285.9 432.361 286.409 433.731 286.964 435.117C287.771 437.456 287.972 439.229 286.829 441.446C284.233 445.268 281.237 447.232 276.693 448.405C271.42 449.363 267.138 448.422 262.729 445.523C259.265 442.843 256.637 438.463 256.098 434.184C255.949 432.438 255.88 430.921 256.64 429.288C257.544 428.588 257.544 428.588 259.021 428.384C259.489 428.451 259.957 428.519 260.438 428.588C261.434 430.033 261.568 430.676 261.795 432.348C262.373 435.644 263.516 438.529 265.954 440.947C268.691 442.496 271.295 442.984 274.425 442.579C276.567 441.951 278.612 441.329 280.212 439.781C280.403 437.896 280.315 436.732 279.491 435.001C277.793 431.322 278.283 425.963 279.685 422.228C282.104 417.173 285.456 413.476 290.732 411.099C294.517 409.793 298.682 409.885 302.398 411.333Z" fill="#F6F9F9"/>
<path d="M332.33 410.662C332.696 410.665 333.061 410.669 333.438 410.673C338.798 410.823 343.032 412.716 346.724 416.462C350.397 420.677 351.522 425.077 351.308 430.51C351.073 432.655 350.455 434.383 349.578 436.352C348.988 437.981 349.209 439.069 349.663 440.713C350.463 441.032 351.268 441.341 352.074 441.646C352.716 441.906 352.716 441.906 353.37 442.17C356.714 443.025 359.767 442.994 362.805 441.3C367.087 438.324 367.824 433.239 368.955 428.588C370.552 428.442 370.552 428.442 372.331 428.588C373.493 429.641 373.756 430.419 373.821 431.949C373.481 437.307 371.027 441.562 367.116 445.26C362.373 448.498 357.773 448.768 352.074 448.175C350.39 447.796 349.142 447.269 347.734 446.309C347.27 446.005 347.27 446.005 346.797 445.694C344.137 443.728 342.678 441.41 342.187 438.206C342.407 436.667 342.739 435.773 343.393 434.388C344.825 431.148 344.966 427.605 344.056 424.192C342.789 421.374 340.373 419.229 337.575 417.83C334.884 416.84 332.179 416.73 329.32 416.652C327.96 416.462 327.96 416.462 327.065 415.836C326.191 414.613 326.296 413.705 326.513 412.265C328.148 410.542 330.061 410.631 332.33 410.662Z" fill="#F7FAFA"/>
<path d="M326.754 309.14C327.127 309.139 327.5 309.138 327.885 309.137C328.924 309.199 328.924 309.199 330.371 309.665C331.007 310.895 330.911 311.81 330.908 313.187C330.908 313.728 330.908 314.27 330.908 314.827C330.906 315.414 330.903 316.001 330.901 316.606C330.9 317.205 330.899 317.804 330.899 318.421C330.897 320.014 330.892 321.608 330.887 323.201C330.882 324.826 330.88 326.452 330.877 328.077C330.872 331.267 330.864 334.457 330.854 337.647C331.324 337.664 331.795 337.682 332.28 337.7C332.893 337.73 333.507 337.761 334.139 337.793C334.749 337.82 335.359 337.847 335.987 337.874C337.606 338.113 337.606 338.113 338.534 338.752C339.327 339.915 339.244 340.905 339.233 342.281C339.239 343.009 339.239 343.009 339.245 343.751C339.024 345.313 338.75 345.866 337.606 346.974C335.481 347.374 333.316 347.255 331.155 347.236C330.561 347.247 329.966 347.259 329.354 347.27C324.492 347.262 324.492 347.262 322.998 345.908C321.736 343.973 321.63 342.422 321.628 340.156C321.626 339.63 321.625 339.103 321.623 338.561C321.624 337.994 321.625 337.426 321.626 336.842C321.626 336.255 321.625 335.668 321.625 335.064C321.624 333.821 321.625 332.578 321.627 331.336C321.63 329.755 321.628 328.175 321.625 326.594C321.623 325.074 321.625 323.554 321.626 322.035C321.625 321.473 321.624 320.911 321.623 320.332C321.647 311.826 321.647 311.826 323.137 309.665C324.493 309.228 325.349 309.136 326.754 309.14Z" fill="#FDFEFC"/>
<path d="M336.53 383.273C340.117 384.861 342.792 387.295 344.328 390.841C344.913 392.585 344.958 394.119 344.84 395.941C345.232 395.792 345.623 395.643 346.027 395.49C350.372 394.265 355.533 394.321 359.64 396.204C364.311 398.882 367.229 402.595 368.955 407.601C369.495 414.425 369.495 414.425 367.025 417.394C364.783 419.4 363.039 420.325 359.972 420.309C359.508 420.311 359.044 420.314 358.566 420.316C357.38 420.192 357.38 420.192 356.415 419.26C356.355 418.035 356.355 418.035 356.415 416.928C358.666 415.995 360.916 415.062 363.167 414.13C363.998 410.684 363.386 408.703 361.63 405.617C359.83 402.98 357.74 401.261 354.486 400.605C350.787 400.192 347.585 401.648 344.508 403.52C342.691 404.448 341.561 404.532 339.535 404.336C338.736 403.564 338.981 402.638 338.968 401.576C338.956 401.106 338.945 400.636 338.933 400.152C338.912 399.161 338.897 398.17 338.888 397.179C338.784 393.518 338.244 391.816 335.465 389.267C333.235 388.245 331.24 388.189 328.794 388.095C327.477 388.013 327.477 388.013 326.995 387.547C326.769 385.037 326.769 385.037 327.658 383.903C330.149 382.144 333.687 382.444 336.53 383.273Z" fill="#F7FAFA"/>
<path d="M301.823 383.504C302.88 384.282 302.88 384.282 303.332 385.71C303.419 385.983 303.603 386.614 303.362 387.08C302.398 388.246 301.037 388.137 299.142 388.188C295.549 388.388 295.549 388.388 292.752 390.345C290.941 392.97 291.058 395.604 291.004 398.652C290.979 399.626 290.953 400.601 290.924 401.576C290.912 402.219 290.912 402.219 290.899 402.876C290.823 403.869 290.823 403.869 290.34 404.336C287.618 404.568 286.074 404.06 283.739 402.732C280.789 401.073 278.837 400.327 275.389 400.605C271.867 401.657 269.495 404.051 267.624 407.054C266.541 409.226 266.278 411.38 267.015 413.694C267.98 415.017 269.045 415.189 270.627 415.645C271.155 415.801 271.684 415.957 272.228 416.118C272.635 416.232 273.041 416.345 273.46 416.461C273.481 417.549 273.48 418.637 273.46 419.726C272.644 420.515 271.654 420.328 270.536 420.367C267.699 420.335 265.914 419.702 263.814 417.86C261.596 415.464 260.73 413.35 260.787 410.09C261.425 404.884 264.527 400.826 268.62 397.593C268.944 397.356 269.268 397.118 269.602 396.874C269.871 396.67 270.14 396.466 270.418 396.256C273.598 394.295 278.029 394.614 281.659 395.008C282.816 395.261 283.906 395.582 285.035 395.941C284.961 395.162 284.961 395.162 284.884 394.367C284.901 391.339 286.283 388.803 288.347 386.574C291.993 383.323 297.018 381.301 301.823 383.504Z" fill="#F6FAF9"/>
<path d="M337.485 447.037C339.514 447.301 340.625 448.133 341.946 449.573C344.741 453.416 344.781 457.629 344.358 462.165C343.444 466.195 340.719 470.163 337.123 472.425C335.857 472.57 335.857 472.57 334.712 472.425C333.747 471.492 333.747 471.492 333.57 470.193C333.789 468.343 334.408 467.59 335.616 466.158C338.337 462.704 339.13 459.488 338.57 455.169C337.773 453.564 337.773 453.564 336.641 452.371C335.225 450.758 335.225 450.758 335.044 449.281C335.27 447.617 335.802 447.296 337.485 447.037Z" fill="#F4F8F8"/>
<path d="M293.717 447.241C294.682 448.174 294.682 448.174 294.893 449.223C294.591 451.055 293.53 451.941 292.27 453.304C290.791 455.646 290.887 458.116 291.306 460.766C292.253 463.377 293.617 466.265 295.646 468.228C295.767 469.86 295.767 469.86 295.646 471.492C294.682 472.425 294.682 472.425 293.386 472.716C290.885 472.26 289.827 470.649 288.412 468.694C287.672 467.483 287.047 466.258 286.483 464.963C286.31 464.617 286.137 464.271 285.959 463.914C285.392 462.266 285.353 460.706 285.367 458.988C285.369 458.655 285.371 458.323 285.374 457.981C285.464 453.914 286.775 450.69 289.798 447.766C291.179 447.059 292.179 447.08 293.717 447.241Z" fill="#F5F9F9"/>
<path d="M331.818 176.751C333.087 177.899 334.228 179.082 335.194 180.482C335.194 180.79 335.194 181.097 335.194 181.415C333.68 181.219 332.18 181.019 330.683 180.726C327.168 180.038 323.732 179.821 320.152 179.724C319.601 179.706 319.05 179.688 318.482 179.669C317.14 179.626 315.798 179.586 314.455 179.549C314.91 179.022 315.367 178.496 315.825 177.971C316.079 177.679 316.333 177.386 316.595 177.084C320.59 172.846 327.383 173.752 331.818 176.751Z" fill="#BACEEB"/>
<path d="M411.396 280.283C412.113 280.745 412.113 280.745 412.843 281.216C412.934 282.906 412.934 282.906 412.843 284.48C412.525 284.48 412.207 284.48 411.879 284.48C411.72 284.942 411.56 285.404 411.396 285.88C411.396 284.033 411.396 282.186 411.396 280.283Z" fill="#FEFFED"/>
<path d="M243.559 101.668C244.673 101.668 245.787 101.668 246.935 101.668C246.457 101.899 246.457 101.899 245.97 102.134C246.129 102.596 246.288 103.058 246.452 103.533C245.497 103.226 244.542 102.918 243.559 102.601C243.559 102.293 243.559 101.985 243.559 101.668Z" fill="#FEFBEB"/>
</svg>
