<svg width="38" height="38" viewBox="0 0 38 38" fill="none" xmlns="http://www.w3.org/2000/svg">
<path d="M18.6795 4.66992C10.9405 4.66992 4.66992 10.9405 4.66992 18.6795C4.66992 26.4186 10.9405 32.6892 18.6795 32.6892C26.4186 32.6892 32.6892 26.4186 32.6892 18.6795C32.6892 18.114 32.6481 17.5577 32.5797 17.0059C32.1145 17.3251 31.549 17.5121 30.938 17.5121C29.6793 17.5121 28.6167 16.7094 28.2063 15.5967C27.4766 16.0619 26.6147 16.3446 25.6843 16.3446C23.1031 16.3446 21.0145 14.2559 21.0145 11.6747C21.0145 10.8174 21.2607 10.0239 21.6666 9.33067C21.6438 9.33523 21.621 9.33979 21.5982 9.33979C19.9838 9.33979 18.6795 8.03551 18.6795 6.42112C18.6795 5.76898 18.8984 5.17613 19.2587 4.69272C19.0672 4.6836 18.8756 4.66992 18.6795 4.66992ZM27.4355 4.66992C26.4687 4.66992 25.6843 5.45431 25.6843 6.42112C25.6843 7.38793 26.4687 8.17233 27.4355 8.17233C28.4024 8.17233 29.1867 7.38793 29.1867 6.42112C29.1867 5.45431 28.4024 4.66992 27.4355 4.66992ZM16.4039 7.22376C16.6365 8.7287 17.5121 10.0239 18.7343 10.8265C18.6978 11.1047 18.6795 11.392 18.6795 11.6747C18.6795 15.5374 21.8217 18.6795 25.6843 18.6795C26.2635 18.6795 26.8427 18.6066 27.3991 18.4606C28.1971 19.1903 29.205 19.6737 30.2995 19.8105C29.7294 25.7208 24.7358 30.3542 18.6795 30.3542C12.2402 30.3542 7.00486 25.1189 7.00486 18.6795C7.00486 13.0201 11.0545 8.28634 16.4039 7.22376ZM25.6843 10.5073C25.0413 10.5073 24.5169 11.0317 24.5169 11.6747C24.5169 12.3177 25.0413 12.8422 25.6843 12.8422C26.3274 12.8422 26.8518 12.3177 26.8518 11.6747C26.8518 11.0317 26.3274 10.5073 25.6843 10.5073ZM16.3446 11.6747C15.7016 11.6747 15.1771 12.1992 15.1771 12.8422C15.1771 13.4852 15.7016 14.0097 16.3446 14.0097C16.9876 14.0097 17.5121 13.4852 17.5121 12.8422C17.5121 12.1992 16.9876 11.6747 16.3446 11.6747ZM31.5217 11.6747C30.8787 11.6747 30.3542 12.1992 30.3542 12.8422C30.3542 13.4852 30.8787 14.0097 31.5217 14.0097C32.1647 14.0097 32.6892 13.4852 32.6892 12.8422C32.6892 12.1992 32.1647 11.6747 31.5217 11.6747ZM12.8422 15.1771C11.5516 15.1771 10.5073 16.2215 10.5073 17.5121C10.5073 18.8027 11.5516 19.847 12.8422 19.847C14.1328 19.847 15.1771 18.8027 15.1771 17.5121C15.1771 16.2215 14.1328 15.1771 12.8422 15.1771ZM18.6795 17.5121C18.0365 17.5121 17.5121 18.0365 17.5121 18.6795C17.5121 19.3226 18.0365 19.847 18.6795 19.847C19.3226 19.847 19.847 19.3226 19.847 18.6795C19.847 18.0365 19.3226 17.5121 18.6795 17.5121ZM14.5934 22.1819C13.6266 22.1819 12.8422 22.9663 12.8422 23.9331C12.8422 24.9 13.6266 25.6843 14.5934 25.6843C15.5602 25.6843 16.3446 24.9 16.3446 23.9331C16.3446 22.9663 15.5602 22.1819 14.5934 22.1819ZM22.7657 23.3494C21.7989 23.3494 21.0145 24.1338 21.0145 25.1006C21.0145 26.0674 21.7989 26.8518 22.7657 26.8518C23.7325 26.8518 24.5169 26.0674 24.5169 25.1006C24.5169 24.1338 23.7325 23.3494 22.7657 23.3494Z" fill="#CE7E56"/>
</svg>
