<svg width="37" height="26" viewBox="0 0 37 26" fill="none" xmlns="http://www.w3.org/2000/svg">
<path d="M10.3521 8.24426C11.4829 7.84127 12.6931 7.71066 13.8843 7.86536C15.0994 8.02319 16.259 8.47274 17.2632 9.17493C18.2137 9.83948 18.9982 10.1934 19.5776 11.3077C19.7564 11.6515 19.685 12.0621 19.5366 12.4532C19.3856 12.8512 19.1333 13.2831 18.8735 13.7042C18.7383 13.9235 18.6009 14.1398 18.4712 14.3507C18.4473 14.4656 18.4218 14.5812 18.3931 14.6954C18.1981 15.4705 17.896 16.2354 17.6616 16.629C17.857 18.1932 17.5698 19.7885 16.8726 21.0558C16.8057 21.3284 16.7335 21.5934 16.6509 21.8478C16.3688 22.7166 15.9764 23.4827 15.3745 24.0314C14.7674 24.5848 13.9638 24.9015 12.894 24.9015C12.0279 24.9004 11.1688 24.7522 10.3521 24.465C9.53546 24.7525 8.67613 24.9009 7.81006 24.9015C5.66593 24.9014 3.76055 23.5807 2.40088 21.7589C1.12513 20.0495 0.306841 17.8713 0.209473 15.8429L0.199707 15.4386C0.194939 14.2125 0.486846 13.0032 1.05029 11.9142C1.61392 10.8248 2.43298 9.8882 3.43701 9.18372C4.44105 8.47923 5.60076 8.02769 6.81689 7.86829C8.00879 7.71211 9.22006 7.84184 10.3521 8.24426ZM7.81006 9.54114C6.2522 9.54389 4.75932 10.1642 3.65771 11.2657C2.55599 12.3675 1.93574 13.861 1.93311 15.4191C1.93329 17.1225 2.63128 19.0682 3.72803 20.588C4.82823 22.1126 6.29471 23.1641 7.81006 23.1642H7.81104C8.56995 23.1663 9.32167 23.0183 10.0239 22.7306L10.0298 22.7286C10.1325 22.6901 10.2414 22.6705 10.3511 22.67H10.3521C10.435 22.6699 10.5175 22.6809 10.5972 22.7032L10.6753 22.7296L10.6802 22.7306C11.383 23.0176 12.1349 23.1654 12.894 23.1642C14.4203 23.1642 15.613 22.3452 16.3774 21.1124C16.4189 21.0456 16.4577 20.9765 16.4966 20.9073C16.647 20.2829 16.7654 19.6106 16.8755 18.9152C16.9966 18.1501 17.1095 17.3564 17.2524 16.5812L17.2476 16.5392L17.2671 16.5079C17.3069 16.2949 17.3488 16.0832 17.394 15.8741C17.4025 15.5278 17.5687 15.1342 17.7769 14.7472C17.8716 14.5711 17.9797 14.3887 18.0923 14.2042C18.1444 13.942 18.182 13.6876 18.1938 13.4552C18.2119 13.1014 18.1735 12.8275 18.0825 12.6564C17.6298 11.806 16.9746 11.0799 16.1753 10.5421C15.376 10.0043 14.4568 9.67043 13.4985 9.57141C12.5404 9.47241 11.5725 9.61086 10.6802 9.97375L10.6792 9.97278C10.5739 10.017 10.4614 10.0411 10.3472 10.0411C10.2327 10.0411 10.1197 10.0172 10.0142 9.97278V9.97375C9.31486 9.68719 8.56579 9.54033 7.81006 9.54114Z" fill="#B3404A" stroke="#B3404A" stroke-width="0.4"/>
<path d="M7.30469 4.09119C7.41762 4.07481 7.53295 4.08165 7.64355 4.10974L7.83398 4.1615C8.77804 4.44263 9.61297 5.01224 10.2197 5.79236C10.8669 6.62451 11.2179 7.64931 11.2168 8.70349V8.7074C11.2116 8.93429 11.1174 9.15032 10.9551 9.30896C10.7927 9.46756 10.5746 9.55701 10.3477 9.55701H10.3457C10.1165 9.55518 9.89681 9.46191 9.73535 9.29919C9.57419 9.13654 9.48347 8.91685 9.4834 8.68787L9.47266 8.43982C9.42243 7.86295 9.20595 7.31057 8.84668 6.85193C8.4362 6.32797 7.86239 5.95625 7.2168 5.79431L7.21582 5.79333C7.10535 5.76526 7.00151 5.71599 6.91016 5.64783C6.81872 5.57955 6.74096 5.49395 6.68262 5.39587C6.56484 5.19784 6.53117 4.961 6.58789 4.73767C6.64464 4.51434 6.78731 4.32229 6.98535 4.20447C7.08332 4.1462 7.19188 4.10758 7.30469 4.09119Z" fill="#B3404A" stroke="#B3404A" stroke-width="0.4"/>
<path d="M15.0415 0.840698C15.9106 0.741651 16.7908 0.848063 17.6108 1.15222C17.6622 1.17689 17.7064 1.21495 17.7378 1.26257C17.7693 1.31053 17.7864 1.36638 17.7886 1.42371C17.7634 2.30043 17.5253 3.15782 17.0942 3.92175C16.6618 4.688 16.0486 5.3372 15.3081 5.81238L15.3052 5.81433C14.3797 6.42778 13.2944 6.75626 12.1841 6.75867H12.1831C11.6116 6.76231 11.0449 6.66321 10.5093 6.46765L10.2817 6.37781C10.2314 6.35339 10.1888 6.31598 10.1577 6.26941C10.1265 6.22255 10.108 6.16835 10.105 6.11218C10.1467 5.23885 10.3931 4.38733 10.8247 3.62683C11.2582 2.86304 11.8665 2.21267 12.5991 1.72839C13.3318 1.24411 14.1689 0.940154 15.0415 0.840698ZM17.0532 1.56921C16.3587 1.36227 15.6266 1.3133 14.9106 1.42566C14.1969 1.53768 13.5168 1.80703 12.9204 2.21472C12.3097 2.60448 11.7939 3.12591 11.4097 3.74011C11.0254 4.35459 10.7828 5.0475 10.6997 5.76746L10.6802 5.93445L10.8413 5.9823C11.5355 6.18909 12.2673 6.23811 12.9829 6.12585C13.6988 6.0135 14.3803 5.74164 14.978 5.33191C15.5873 4.94323 16.1026 4.4242 16.4858 3.8114C16.8702 3.1968 17.1128 2.50427 17.1948 1.78406L17.2134 1.61707L17.0532 1.56921Z" fill="#B3404A" stroke="#B3404A" stroke-width="0.4"/>
<path d="M14.9795 0.236938C15.8275 0.141915 16.6846 0.230017 17.4932 0.493774L17.8369 0.617798L17.8408 0.619751C17.9975 0.685728 18.1316 0.796477 18.2256 0.93811C18.3196 1.07983 18.3693 1.24656 18.3691 1.41663V1.42151C18.3452 2.39446 18.0844 3.34699 17.6084 4.19592C17.1328 5.04426 16.4564 5.76272 15.6396 6.29065C14.6162 6.97248 13.4144 7.33652 12.1846 7.33752C11.4512 7.33986 10.7249 7.1951 10.0488 6.91077C9.892 6.84481 9.75816 6.73415 9.66406 6.59241C9.56999 6.45066 9.51942 6.28401 9.51953 6.11389V6.10901C9.54692 5.13299 9.81319 4.17803 10.2949 3.32874C10.7766 2.47952 11.4596 1.76127 12.2832 1.23694C13.0869 0.688734 14.0126 0.345296 14.9795 0.236938ZM16.5947 2.026C16.0543 1.91132 15.4964 1.90063 14.9512 1.9967C14.3446 2.10359 13.7677 2.33878 13.2598 2.68713L13.2539 2.69202C12.7315 3.02108 12.2856 3.45842 11.9463 3.97424C11.6412 4.43804 11.4284 4.9555 11.3193 5.49866C11.8599 5.6145 12.4182 5.62726 12.9639 5.53186C13.5703 5.4258 14.1472 5.19113 14.6553 4.84338L14.6611 4.8385C15.1841 4.50892 15.6303 4.07102 15.9697 3.55432C16.2751 3.08941 16.4862 2.57035 16.5947 2.026Z" fill="#B3404A" stroke="#B3404A" stroke-width="0.4"/>
<path d="M35.2022 13.4069V17.4125C34.5399 17.4125 33.2162 17.813 33.2162 19.4152C33.2162 21.0174 34.5399 21.418 35.2022 21.418V24.4221H18.8178C16.3353 19.4152 16.3353 10.4028 25.2723 8.40002L35.2022 13.4069ZM35.2022 13.4069H19.3143M22.2933 20.4166H22.2943M27.2583 17.4125H27.2593M29.2443 20.4166H29.2453" stroke="#E5BE01" stroke-width="1.7" stroke-linecap="round" stroke-linejoin="round"/>
</svg>
