<svg width="20" height="29" viewBox="0 0 20 29" fill="none" xmlns="http://www.w3.org/2000/svg">
<mask id="path-1-outside-1_4493_8560" maskUnits="userSpaceOnUse" x="-0.700195" y="-1.03809" width="21" height="31" fill="black">
<rect fill="white" x="-0.700195" y="-1.03809" width="21" height="31"/>
<path d="M18.861 14.7892C18.4714 14.2829 17.9318 13.9125 17.3193 13.7309C17.8099 13.1824 18.0809 12.4723 18.0804 11.7365V11.5976C18.0802 10.9887 17.8938 10.3944 17.5462 9.89448C17.1987 9.39452 16.7066 9.01275 16.136 8.80035C16.5147 8.27068 16.7968 7.67823 16.9693 7.05035C17.2781 5.82675 17.1807 4.5359 16.6915 3.37257C16.4166 2.66738 16.0103 2.02076 15.4943 1.46702C14.2193 0.128127 12.6277 -0.155207 11.9693 0.000348829C11.8682 0.0143081 11.7712 0.049799 11.685 0.104427C11.5987 0.159054 11.5252 0.231548 11.4693 0.317015C11.4259 0.411977 11.4092 0.516964 11.4209 0.62071C11.4327 0.724457 11.4725 0.823048 11.536 0.905904C11.7316 1.14905 11.8728 1.43135 11.9499 1.73373C12.0271 2.03611 12.0384 2.35154 11.9832 2.65868C11.9005 3.01663 11.723 3.34573 11.4693 3.61146H5.51099C4.71903 3.61146 3.9595 3.92607 3.39949 4.48607C2.83949 5.04608 2.52488 5.8056 2.52488 6.59757C2.51776 7.41014 2.81504 8.19596 3.35822 8.80035C2.78825 9.01376 2.29684 9.39577 1.94946 9.89551C1.60207 10.3952 1.41521 10.989 1.41377 11.5976C1.39872 11.9751 1.45528 12.3521 1.58044 12.7087C1.72254 13.1158 1.94981 13.488 2.24711 13.8003C1.65439 14.0216 1.14697 14.4249 0.797646 14.9524C0.448322 15.4798 0.275041 16.1044 0.302661 16.7365C0.3154 17.5258 0.62827 18.2807 1.17766 18.8476C1.50164 19.1598 1.8885 19.3994 2.31242 19.5503C2.73634 19.7012 3.18757 19.7599 3.63599 19.7226V21.9448C3.63599 22.0921 3.69453 22.2334 3.79871 22.3376C3.9029 22.4418 4.04421 22.5003 4.19155 22.5003H5.34433L5.76933 28.3726C5.77919 28.5131 5.84204 28.6446 5.94518 28.7405C6.04832 28.8364 6.18404 28.8896 6.32488 28.8892H13.1721C13.313 28.8896 13.4487 28.8364 13.5518 28.7405C13.6549 28.6446 13.7178 28.5131 13.7277 28.3726L14.1527 22.5003H15.5804C15.7278 22.5003 15.8691 22.4418 15.9733 22.3376C16.0775 22.2334 16.136 22.0921 16.136 21.9448V19.7226C16.5844 19.7599 17.0356 19.7012 17.4596 19.5503C17.8835 19.3994 18.2703 19.1598 18.5943 18.8476C19.1437 18.2807 19.4566 17.5258 19.4693 16.7365C19.4956 16.0369 19.2809 15.3495 18.861 14.7892ZM12.6638 27.7781H6.83044L6.4471 22.5003H13.0471L12.6638 27.7781ZM17.8193 18.0559C17.4641 18.4041 16.9889 18.6029 16.4915 18.6115H13.636V19.7226H15.0249V21.3892H4.7471V19.7226H10.3027V18.6115H3.26933C2.77153 18.6115 2.29405 18.4141 1.94153 18.0626C1.58902 17.7112 1.39024 17.2343 1.38877 16.7365C1.37168 16.4788 1.40761 16.2204 1.49432 15.9771C1.58104 15.7339 1.71671 15.511 1.89295 15.3223C2.0692 15.1336 2.28226 14.983 2.519 14.8798C2.75573 14.7767 3.0111 14.7231 3.26933 14.7226H12.436C12.5609 14.7229 12.6825 14.6827 12.7827 14.6081C12.8828 14.5335 12.9561 14.4284 12.9915 14.3087C13.0132 14.2266 13.0157 14.1405 12.999 14.0573C12.9822 13.974 12.9465 13.8957 12.8948 13.8284C12.843 13.761 12.7765 13.7065 12.7003 13.6689C12.6241 13.6313 12.5404 13.6116 12.4554 13.6115H4.39988C3.88418 13.6115 3.38961 13.4066 3.02495 13.0419C2.6603 12.6773 2.45544 12.1827 2.45544 11.667C2.45544 11.1513 2.6603 10.6567 3.02495 10.2921C3.38961 9.92743 3.88418 9.72257 4.39988 9.72257H7.63322C7.75811 9.7229 7.87975 9.68274 7.97991 9.60813C8.08006 9.53351 8.15334 9.42845 8.18877 9.30868C8.21022 9.22745 8.21296 9.14241 8.19679 9.05997C8.18062 8.97752 8.14596 8.89982 8.09542 8.8327C8.04489 8.76558 7.97978 8.7108 7.90502 8.67248C7.83025 8.63416 7.74777 8.6133 7.66377 8.61146H5.51377C5.01646 8.61073 4.53968 8.41304 4.18777 8.06164C3.83586 7.71025 3.63746 7.23377 3.63599 6.73646C3.61892 6.47903 3.65476 6.22083 3.74131 5.97778C3.82786 5.73474 3.96328 5.512 4.13923 5.3233C4.31517 5.13461 4.5279 4.98395 4.76431 4.88064C5.00071 4.77732 5.25578 4.72352 5.51377 4.72257H12.7804C12.9053 4.7229 13.027 4.68274 13.1271 4.60813C13.2273 4.53351 13.3006 4.42845 13.336 4.30868C13.3576 4.22678 13.3602 4.14102 13.3436 4.05796C13.3269 3.9749 13.2915 3.89674 13.2401 3.82946C13.1886 3.76219 13.1224 3.70757 13.0466 3.66978C12.9708 3.632 12.8874 3.61205 12.8027 3.61146H12.5554C12.6678 3.38495 12.7509 3.14506 12.8027 2.89757C12.9218 2.35085 12.893 1.78225 12.7193 1.25035C13.5982 1.40933 14.4048 1.84081 15.0249 2.48368C16.5415 4.12813 16.561 7.15035 15.1721 8.19479C14.8243 8.44546 14.4114 8.59016 13.9832 8.61146H10.8582C10.7109 8.61146 10.5696 8.66999 10.4654 8.77418C10.3612 8.87836 10.3027 9.01967 10.3027 9.16702C10.3027 9.47257 10.8582 9.72257 10.8582 9.72257H15.0971C15.6128 9.72257 16.1074 9.92743 16.472 10.2921C16.8367 10.6567 17.0415 11.1513 17.0415 11.667C17.0415 12.1827 16.8367 12.6773 16.472 13.0419C16.1074 13.4066 15.6128 13.6115 15.0971 13.6115C14.956 13.6294 14.8249 13.6937 14.7244 13.7943C14.6238 13.8948 14.5595 14.0259 14.5415 14.167C14.5415 14.5281 15.0221 14.7226 15.0971 14.7226C15.4359 14.7238 15.7723 14.6664 16.0915 14.5531C16.485 14.4935 16.8873 14.5525 17.2471 14.7226C17.6038 14.9188 17.8975 15.2122 18.0942 15.5687C18.2908 15.9251 18.3824 16.3301 18.3582 16.7365C18.3459 17.2274 18.1542 17.6968 17.8193 18.0559Z"/>
</mask>
<path d="M18.861 14.7892C18.4714 14.2829 17.9318 13.9125 17.3193 13.7309C17.8099 13.1824 18.0809 12.4723 18.0804 11.7365V11.5976C18.0802 10.9887 17.8938 10.3944 17.5462 9.89448C17.1987 9.39452 16.7066 9.01275 16.136 8.80035C16.5147 8.27068 16.7968 7.67823 16.9693 7.05035C17.2781 5.82675 17.1807 4.5359 16.6915 3.37257C16.4166 2.66738 16.0103 2.02076 15.4943 1.46702C14.2193 0.128127 12.6277 -0.155207 11.9693 0.000348829C11.8682 0.0143081 11.7712 0.049799 11.685 0.104427C11.5987 0.159054 11.5252 0.231548 11.4693 0.317015C11.4259 0.411977 11.4092 0.516964 11.4209 0.62071C11.4327 0.724457 11.4725 0.823048 11.536 0.905904C11.7316 1.14905 11.8728 1.43135 11.9499 1.73373C12.0271 2.03611 12.0384 2.35154 11.9832 2.65868C11.9005 3.01663 11.723 3.34573 11.4693 3.61146H5.51099C4.71903 3.61146 3.9595 3.92607 3.39949 4.48607C2.83949 5.04608 2.52488 5.8056 2.52488 6.59757C2.51776 7.41014 2.81504 8.19596 3.35822 8.80035C2.78825 9.01376 2.29684 9.39577 1.94946 9.89551C1.60207 10.3952 1.41521 10.989 1.41377 11.5976C1.39872 11.9751 1.45528 12.3521 1.58044 12.7087C1.72254 13.1158 1.94981 13.488 2.24711 13.8003C1.65439 14.0216 1.14697 14.4249 0.797646 14.9524C0.448322 15.4798 0.275041 16.1044 0.302661 16.7365C0.3154 17.5258 0.62827 18.2807 1.17766 18.8476C1.50164 19.1598 1.8885 19.3994 2.31242 19.5503C2.73634 19.7012 3.18757 19.7599 3.63599 19.7226V21.9448C3.63599 22.0921 3.69453 22.2334 3.79871 22.3376C3.9029 22.4418 4.04421 22.5003 4.19155 22.5003H5.34433L5.76933 28.3726C5.77919 28.5131 5.84204 28.6446 5.94518 28.7405C6.04832 28.8364 6.18404 28.8896 6.32488 28.8892H13.1721C13.313 28.8896 13.4487 28.8364 13.5518 28.7405C13.6549 28.6446 13.7178 28.5131 13.7277 28.3726L14.1527 22.5003H15.5804C15.7278 22.5003 15.8691 22.4418 15.9733 22.3376C16.0775 22.2334 16.136 22.0921 16.136 21.9448V19.7226C16.5844 19.7599 17.0356 19.7012 17.4596 19.5503C17.8835 19.3994 18.2703 19.1598 18.5943 18.8476C19.1437 18.2807 19.4566 17.5258 19.4693 16.7365C19.4956 16.0369 19.2809 15.3495 18.861 14.7892ZM12.6638 27.7781H6.83044L6.4471 22.5003H13.0471L12.6638 27.7781ZM17.8193 18.0559C17.4641 18.4041 16.9889 18.6029 16.4915 18.6115H13.636V19.7226H15.0249V21.3892H4.7471V19.7226H10.3027V18.6115H3.26933C2.77153 18.6115 2.29405 18.4141 1.94153 18.0626C1.58902 17.7112 1.39024 17.2343 1.38877 16.7365C1.37168 16.4788 1.40761 16.2204 1.49432 15.9771C1.58104 15.7339 1.71671 15.511 1.89295 15.3223C2.0692 15.1336 2.28226 14.983 2.519 14.8798C2.75573 14.7767 3.0111 14.7231 3.26933 14.7226H12.436C12.5609 14.7229 12.6825 14.6827 12.7827 14.6081C12.8828 14.5335 12.9561 14.4284 12.9915 14.3087C13.0132 14.2266 13.0157 14.1405 12.999 14.0573C12.9822 13.974 12.9465 13.8957 12.8948 13.8284C12.843 13.761 12.7765 13.7065 12.7003 13.6689C12.6241 13.6313 12.5404 13.6116 12.4554 13.6115H4.39988C3.88418 13.6115 3.38961 13.4066 3.02495 13.0419C2.6603 12.6773 2.45544 12.1827 2.45544 11.667C2.45544 11.1513 2.6603 10.6567 3.02495 10.2921C3.38961 9.92743 3.88418 9.72257 4.39988 9.72257H7.63322C7.75811 9.7229 7.87975 9.68274 7.97991 9.60813C8.08006 9.53351 8.15334 9.42845 8.18877 9.30868C8.21022 9.22745 8.21296 9.14241 8.19679 9.05997C8.18062 8.97752 8.14596 8.89982 8.09542 8.8327C8.04489 8.76558 7.97978 8.7108 7.90502 8.67248C7.83025 8.63416 7.74777 8.6133 7.66377 8.61146H5.51377C5.01646 8.61073 4.53968 8.41304 4.18777 8.06164C3.83586 7.71025 3.63746 7.23377 3.63599 6.73646C3.61892 6.47903 3.65476 6.22083 3.74131 5.97778C3.82786 5.73474 3.96328 5.512 4.13923 5.3233C4.31517 5.13461 4.5279 4.98395 4.76431 4.88064C5.00071 4.77732 5.25578 4.72352 5.51377 4.72257H12.7804C12.9053 4.7229 13.027 4.68274 13.1271 4.60813C13.2273 4.53351 13.3006 4.42845 13.336 4.30868C13.3576 4.22678 13.3602 4.14102 13.3436 4.05796C13.3269 3.9749 13.2915 3.89674 13.2401 3.82946C13.1886 3.76219 13.1224 3.70757 13.0466 3.66978C12.9708 3.632 12.8874 3.61205 12.8027 3.61146H12.5554C12.6678 3.38495 12.7509 3.14506 12.8027 2.89757C12.9218 2.35085 12.893 1.78225 12.7193 1.25035C13.5982 1.40933 14.4048 1.84081 15.0249 2.48368C16.5415 4.12813 16.561 7.15035 15.1721 8.19479C14.8243 8.44546 14.4114 8.59016 13.9832 8.61146H10.8582C10.7109 8.61146 10.5696 8.66999 10.4654 8.77418C10.3612 8.87836 10.3027 9.01967 10.3027 9.16702C10.3027 9.47257 10.8582 9.72257 10.8582 9.72257H15.0971C15.6128 9.72257 16.1074 9.92743 16.472 10.2921C16.8367 10.6567 17.0415 11.1513 17.0415 11.667C17.0415 12.1827 16.8367 12.6773 16.472 13.0419C16.1074 13.4066 15.6128 13.6115 15.0971 13.6115C14.956 13.6294 14.8249 13.6937 14.7244 13.7943C14.6238 13.8948 14.5595 14.0259 14.5415 14.167C14.5415 14.5281 15.0221 14.7226 15.0971 14.7226C15.4359 14.7238 15.7723 14.6664 16.0915 14.5531C16.485 14.4935 16.8873 14.5525 17.2471 14.7226C17.6038 14.9188 17.8975 15.2122 18.0942 15.5687C18.2908 15.9251 18.3824 16.3301 18.3582 16.7365C18.3459 17.2274 18.1542 17.6968 17.8193 18.0559Z" fill="#52453B"/>
<path d="M18.861 14.7892C18.4714 14.2829 17.9318 13.9125 17.3193 13.7309C17.8099 13.1824 18.0809 12.4723 18.0804 11.7365V11.5976C18.0802 10.9887 17.8938 10.3944 17.5462 9.89448C17.1987 9.39452 16.7066 9.01275 16.136 8.80035C16.5147 8.27068 16.7968 7.67823 16.9693 7.05035C17.2781 5.82675 17.1807 4.5359 16.6915 3.37257C16.4166 2.66738 16.0103 2.02076 15.4943 1.46702C14.2193 0.128127 12.6277 -0.155207 11.9693 0.000348829C11.8682 0.0143081 11.7712 0.049799 11.685 0.104427C11.5987 0.159054 11.5252 0.231548 11.4693 0.317015C11.4259 0.411977 11.4092 0.516964 11.4209 0.62071C11.4327 0.724457 11.4725 0.823048 11.536 0.905904C11.7316 1.14905 11.8728 1.43135 11.9499 1.73373C12.0271 2.03611 12.0384 2.35154 11.9832 2.65868C11.9005 3.01663 11.723 3.34573 11.4693 3.61146H5.51099C4.71903 3.61146 3.9595 3.92607 3.39949 4.48607C2.83949 5.04608 2.52488 5.8056 2.52488 6.59757C2.51776 7.41014 2.81504 8.19596 3.35822 8.80035C2.78825 9.01376 2.29684 9.39577 1.94946 9.89551C1.60207 10.3952 1.41521 10.989 1.41377 11.5976C1.39872 11.9751 1.45528 12.3521 1.58044 12.7087C1.72254 13.1158 1.94981 13.488 2.24711 13.8003C1.65439 14.0216 1.14697 14.4249 0.797646 14.9524C0.448322 15.4798 0.275041 16.1044 0.302661 16.7365C0.3154 17.5258 0.62827 18.2807 1.17766 18.8476C1.50164 19.1598 1.8885 19.3994 2.31242 19.5503C2.73634 19.7012 3.18757 19.7599 3.63599 19.7226V21.9448C3.63599 22.0921 3.69453 22.2334 3.79871 22.3376C3.9029 22.4418 4.04421 22.5003 4.19155 22.5003H5.34433L5.76933 28.3726C5.77919 28.5131 5.84204 28.6446 5.94518 28.7405C6.04832 28.8364 6.18404 28.8896 6.32488 28.8892H13.1721C13.313 28.8896 13.4487 28.8364 13.5518 28.7405C13.6549 28.6446 13.7178 28.5131 13.7277 28.3726L14.1527 22.5003H15.5804C15.7278 22.5003 15.8691 22.4418 15.9733 22.3376C16.0775 22.2334 16.136 22.0921 16.136 21.9448V19.7226C16.5844 19.7599 17.0356 19.7012 17.4596 19.5503C17.8835 19.3994 18.2703 19.1598 18.5943 18.8476C19.1437 18.2807 19.4566 17.5258 19.4693 16.7365C19.4956 16.0369 19.2809 15.3495 18.861 14.7892ZM12.6638 27.7781H6.83044L6.4471 22.5003H13.0471L12.6638 27.7781ZM17.8193 18.0559C17.4641 18.4041 16.9889 18.6029 16.4915 18.6115H13.636V19.7226H15.0249V21.3892H4.7471V19.7226H10.3027V18.6115H3.26933C2.77153 18.6115 2.29405 18.4141 1.94153 18.0626C1.58902 17.7112 1.39024 17.2343 1.38877 16.7365C1.37168 16.4788 1.40761 16.2204 1.49432 15.9771C1.58104 15.7339 1.71671 15.511 1.89295 15.3223C2.0692 15.1336 2.28226 14.983 2.519 14.8798C2.75573 14.7767 3.0111 14.7231 3.26933 14.7226H12.436C12.5609 14.7229 12.6825 14.6827 12.7827 14.6081C12.8828 14.5335 12.9561 14.4284 12.9915 14.3087C13.0132 14.2266 13.0157 14.1405 12.999 14.0573C12.9822 13.974 12.9465 13.8957 12.8948 13.8284C12.843 13.761 12.7765 13.7065 12.7003 13.6689C12.6241 13.6313 12.5404 13.6116 12.4554 13.6115H4.39988C3.88418 13.6115 3.38961 13.4066 3.02495 13.0419C2.6603 12.6773 2.45544 12.1827 2.45544 11.667C2.45544 11.1513 2.6603 10.6567 3.02495 10.2921C3.38961 9.92743 3.88418 9.72257 4.39988 9.72257H7.63322C7.75811 9.7229 7.87975 9.68274 7.97991 9.60813C8.08006 9.53351 8.15334 9.42845 8.18877 9.30868C8.21022 9.22745 8.21296 9.14241 8.19679 9.05997C8.18062 8.97752 8.14596 8.89982 8.09542 8.8327C8.04489 8.76558 7.97978 8.7108 7.90502 8.67248C7.83025 8.63416 7.74777 8.6133 7.66377 8.61146H5.51377C5.01646 8.61073 4.53968 8.41304 4.18777 8.06164C3.83586 7.71025 3.63746 7.23377 3.63599 6.73646C3.61892 6.47903 3.65476 6.22083 3.74131 5.97778C3.82786 5.73474 3.96328 5.512 4.13923 5.3233C4.31517 5.13461 4.5279 4.98395 4.76431 4.88064C5.00071 4.77732 5.25578 4.72352 5.51377 4.72257H12.7804C12.9053 4.7229 13.027 4.68274 13.1271 4.60813C13.2273 4.53351 13.3006 4.42845 13.336 4.30868C13.3576 4.22678 13.3602 4.14102 13.3436 4.05796C13.3269 3.9749 13.2915 3.89674 13.2401 3.82946C13.1886 3.76219 13.1224 3.70757 13.0466 3.66978C12.9708 3.632 12.8874 3.61205 12.8027 3.61146H12.5554C12.6678 3.38495 12.7509 3.14506 12.8027 2.89757C12.9218 2.35085 12.893 1.78225 12.7193 1.25035C13.5982 1.40933 14.4048 1.84081 15.0249 2.48368C16.5415 4.12813 16.561 7.15035 15.1721 8.19479C14.8243 8.44546 14.4114 8.59016 13.9832 8.61146H10.8582C10.7109 8.61146 10.5696 8.66999 10.4654 8.77418C10.3612 8.87836 10.3027 9.01967 10.3027 9.16702C10.3027 9.47257 10.8582 9.72257 10.8582 9.72257H15.0971C15.6128 9.72257 16.1074 9.92743 16.472 10.2921C16.8367 10.6567 17.0415 11.1513 17.0415 11.667C17.0415 12.1827 16.8367 12.6773 16.472 13.0419C16.1074 13.4066 15.6128 13.6115 15.0971 13.6115C14.956 13.6294 14.8249 13.6937 14.7244 13.7943C14.6238 13.8948 14.5595 14.0259 14.5415 14.167C14.5415 14.5281 15.0221 14.7226 15.0971 14.7226C15.4359 14.7238 15.7723 14.6664 16.0915 14.5531C16.485 14.4935 16.8873 14.5525 17.2471 14.7226C17.6038 14.9188 17.8975 15.2122 18.0942 15.5687C18.2908 15.9251 18.3824 16.3301 18.3582 16.7365C18.3459 17.2274 18.1542 17.6968 17.8193 18.0559Z" stroke="#52453B" stroke-width="0.6" mask="url(#path-1-outside-1_4493_8560)"/>
</svg>
