<svg width="30" height="30" viewBox="0 0 30 30" fill="none" xmlns="http://www.w3.org/2000/svg">
<g clip-path="url(#clip0_12231_1135)">
<path d="M0 3.8147e-06L1.31134e-06 30L30 30L30 2.50336e-06L0 3.8147e-06Z" fill="white" fill-opacity="0.01"/>
<path d="M2.5 18.75L2.5 26.25C2.5 26.9404 3.05965 27.5 3.75 27.5L11.25 27.5C11.9404 27.5 12.5 26.9404 12.5 26.25L12.5 18.75C12.5 18.0596 11.9404 17.5 11.25 17.5L3.75 17.5C3.05964 17.5 2.5 18.0596 2.5 18.75Z" fill="#9FA5C0"/>
<path d="M17.5 18.75L17.5 26.25C17.5 26.9404 18.0596 27.5 18.75 27.5L26.25 27.5C26.9404 27.5 27.5 26.9404 27.5 26.25L27.5 18.75C27.5 18.0596 26.9404 17.5 26.25 17.5L18.75 17.5C18.0596 17.5 17.5 18.0596 17.5 18.75Z" fill="#9FA5C0"/>
<path d="M2.5 3.75L2.5 11.25C2.5 11.9404 3.05965 12.5 3.75 12.5L11.25 12.5C11.9404 12.5 12.5 11.9404 12.5 11.25L12.5 3.75C12.5 3.05965 11.9404 2.5 11.25 2.5L3.75 2.5C3.05964 2.5 2.5 3.05965 2.5 3.75Z" fill="#9FA5C0"/>
<path d="M21.7662 1.6245L16.2964 6.75586C15.7929 7.22819 15.7677 8.01924 16.24 8.52272L21.3714 13.9926C21.8437 14.496 22.6347 14.5213 23.1382 14.049L28.6081 8.91762C29.1115 8.44529 29.1368 7.65424 28.6645 7.15075L23.5331 1.68091C23.0608 1.17743 22.2697 1.15217 21.7662 1.6245Z" fill="#9FA5C0"/>
</g>
<defs>
<clipPath id="clip0_12231_1135">
<rect width="30" height="30" fill="white" transform="translate(1.31134e-06 30) rotate(-90)"/>
</clipPath>
</defs>
</svg>
