<svg width="38" height="38" viewBox="0 0 38 38" fill="none" xmlns="http://www.w3.org/2000/svg">
<g clip-path="url(#clip0_4495_11601)">
<mask id="mask0_4495_11601" style="mask-type:luminance" maskUnits="userSpaceOnUse" x="0" y="0" width="38" height="38">
<path d="M37.359 0H0V37.359H37.359V0Z" fill="white"/>
</mask>
<g mask="url(#mask0_4495_11601)">
<path d="M24.5894 36.9215H12.77C12.4768 36.9226 12.194 36.8133 11.9777 36.6154C11.7614 36.4175 11.6274 36.1454 11.6025 35.8533L9.80696 14.6999C9.78064 14.3912 9.87803 14.0847 10.0777 13.8478C10.2774 13.6109 10.563 13.463 10.8717 13.4367C11.1804 13.4104 11.4869 13.5078 11.7238 13.7075C11.9607 13.9071 12.1086 14.1928 12.1349 14.5015L13.8417 34.5819H23.5177L25.2245 14.5015C25.2363 14.3481 25.2784 14.1987 25.3485 14.0618C25.4186 13.9249 25.5153 13.8034 25.6329 13.7042C25.7505 13.6051 25.8866 13.5304 26.0334 13.4845C26.1802 13.4386 26.3346 13.4223 26.4877 13.4367C26.6406 13.4497 26.7895 13.4926 26.9257 13.5631C27.062 13.6336 27.1831 13.7303 27.2819 13.8476C27.3808 13.9649 27.4556 14.1006 27.502 14.2468C27.5485 14.3931 27.5656 14.5471 27.5525 14.6999L25.7534 35.8533C25.7285 36.1448 25.5951 36.4164 25.3796 36.6142C25.164 36.812 24.882 36.9217 24.5894 36.9215Z" fill="#344952"/>
<path d="M18.6798 11.5359C18.6081 11.5356 18.5367 11.5289 18.4662 11.516C18.1621 11.4593 17.8929 11.2842 17.7178 11.0292C17.5426 10.7742 17.4759 10.4601 17.5322 10.1559L18.5736 4.52757C18.6067 4.34876 18.6812 4.18016 18.7911 4.03524C18.9009 3.89031 19.0431 3.77305 19.2063 3.69281L25.5842 0.558163C25.7222 0.486516 25.873 0.443143 26.028 0.430578C26.1829 0.418013 26.3388 0.436519 26.4865 0.485C26.6341 0.533482 26.7707 0.610952 26.888 0.712897C27.0053 0.814842 27.1011 0.939193 27.1698 1.07866C27.2384 1.21812 27.2785 1.36989 27.2877 1.52506C27.297 1.68023 27.2751 1.83568 27.2234 1.98228C27.1718 2.12888 27.0913 2.2637 26.9869 2.3788C26.8824 2.49391 26.756 2.587 26.6151 2.65261L20.7637 5.52924L19.8298 10.5809C19.7801 10.8494 19.6378 11.0921 19.4277 11.2666C19.2176 11.441 18.9529 11.5363 18.6798 11.5359Z" fill="#344952"/>
<path d="M27.5137 15.6794H9.8452C9.53557 15.6794 9.23862 15.5564 9.01968 15.3375C8.80073 15.1186 8.67773 14.8216 8.67773 14.512V10.3686C8.67773 10.059 8.80073 9.76206 9.01968 9.54311C9.23862 9.32417 9.53557 9.20117 9.8452 9.20117H27.5137C27.8233 9.20117 28.1202 9.32417 28.3392 9.54311C28.5581 9.76206 28.6811 10.059 28.6811 10.3686V14.512C28.6811 14.6653 28.6509 14.8171 28.5923 14.9588C28.5336 15.1004 28.4476 15.2291 28.3392 15.3375C28.2308 15.4459 28.1021 15.5319 27.9604 15.5906C27.8188 15.6493 27.667 15.6794 27.5137 15.6794ZM11.0127 13.3445H26.3462V11.5361H11.0127V13.3445Z" fill="#344952"/>
<path d="M20.7058 31.6968H12.3747C12.2199 31.6968 12.0715 31.6353 11.962 31.5258C11.8525 31.4163 11.791 31.2678 11.791 31.113C11.791 30.9582 11.8525 30.8097 11.962 30.7003C12.0715 30.5908 12.2199 30.5293 12.3747 30.5293H20.7058C20.8606 30.5293 21.0091 30.5908 21.1186 30.7003C21.228 30.8097 21.2895 30.9582 21.2895 31.113C21.2895 31.2678 21.228 31.4163 21.1186 31.5258C21.0091 31.6353 20.8606 31.6968 20.7058 31.6968Z" fill="#344952"/>
</g>
</g>
<defs>
<clipPath id="clip0_4495_11601">
<rect width="37.359" height="37.359" fill="white"/>
</clipPath>
</defs>
</svg>
