<svg width="32" height="32" viewBox="0 0 32 32" fill="none" xmlns="http://www.w3.org/2000/svg">
<path d="M31.6037 11.4884C31.5313 11.4442 30.0551 10.5533 28.3684 10.3797C28.2285 8.24968 26.9102 6.31349 26.8465 6.22124C26.652 5.93937 26.304 5.80618 25.971 5.88668C25.862 5.91299 23.5883 6.47662 22.0638 7.97106C20.6909 6.97587 18.9969 6.65549 18.9134 6.64024C18.4927 6.56299 18.082 6.81962 17.9669 7.23193C17.8196 7.76024 16.739 11.7556 16.9834 14.3749C14.9514 14.8149 12.8102 14.1939 11.3338 12.7174C9.90467 11.2882 9.2763 9.23618 9.63648 7.26343C11.6094 6.90306 13.6612 7.53162 15.0904 8.96074C15.4136 9.28387 15.9377 9.28387 16.261 8.96074C16.5842 8.63756 16.5842 8.11343 16.261 7.79018C14.2994 5.82856 11.4139 5.05506 8.73086 5.77156C8.44467 5.84793 8.22117 6.07149 8.14473 6.35762C7.75929 7.80099 7.80573 9.30268 8.23561 10.6878L5.40505 8.66712C5.03311 8.40149 4.51611 8.48774 4.25055 8.85981C3.98492 9.23187 4.07117 9.74874 4.4433 10.0143L10.9909 14.6886H2.94655C1.30917 12.6975 1.20561 9.87968 2.71586 7.76431C2.98148 7.39224 2.89523 6.87537 2.52311 6.60981C2.15117 6.34418 1.63417 6.43043 1.36861 6.80249C0.396983 8.16368 -0.0847049 9.83093 0.0122326 11.4972C0.10767 13.1376 0.756358 14.7161 1.83892 15.9418C1.86273 15.9688 1.88836 15.9933 1.91467 16.0164C2.41205 18.1019 3.36948 20.0894 4.69711 21.7826C6.07567 23.5405 7.8593 24.9927 9.85505 25.9821C10.5255 26.3146 11.2869 26.4903 12.057 26.4903H20.9656C21.7357 26.4903 22.4972 26.3146 23.1675 25.9821C25.1634 24.9927 26.947 23.5405 28.3255 21.7826C29.7224 20.0011 30.7105 17.8942 31.1829 15.6899C31.2353 15.4454 31.1744 15.1904 31.0173 14.9961C30.8601 14.8016 30.6235 14.6887 30.3736 14.6887H26.6001L26.8147 14.3569C27.0629 13.9731 26.9529 13.4607 26.569 13.2125C26.1852 12.9644 25.6728 13.0744 25.4246 13.4581L24.629 14.6887H21.8184L22.2051 12.2281C22.276 11.7766 21.9675 11.3529 21.516 11.2819C21.0642 11.2107 20.6408 11.5196 20.5698 11.9711L20.1427 14.6886H18.6924C18.3808 13.3322 18.8581 10.4893 19.3552 8.46612C20.002 8.67431 20.9317 9.06293 21.5554 9.70837C21.7261 9.88506 21.9664 9.9773 22.2118 9.95868C22.4569 9.94049 22.6812 9.8143 22.8241 9.61437C23.5755 8.56243 24.9985 7.94706 25.791 7.67112C26.1977 8.40568 26.8477 9.81268 26.7062 11.0974C26.6793 11.3417 26.7624 11.5854 26.9329 11.7624C27.1035 11.9393 27.3434 12.0316 27.589 12.0135C29.0693 11.9061 30.7047 12.879 30.7415 12.9011C31.1313 13.1387 31.6404 13.0159 31.8785 12.626C32.1167 12.2362 31.9937 11.7267 31.6037 11.4884ZM22.4322 24.4992C21.9891 24.7189 21.482 24.8351 20.9656 24.8351H12.057C11.5406 24.8351 11.0335 24.719 10.5903 24.4992C7.27898 22.8577 4.76648 19.856 3.71505 16.3442H29.3075C28.2561 19.8559 25.7436 22.8576 22.4322 24.4992Z" fill="#50B76C"/>
</svg>
