<svg width="28" height="28" viewBox="0 0 28 28" fill="none" xmlns="http://www.w3.org/2000/svg">
<g clip-path="url(#clip0_4495_11589)">
<path d="M13.7838 5.87625C12.9258 4.7936 11.6415 4.17269 10.2601 4.17269H9.76872L11.9009 2.04054C12.2278 1.71357 12.2278 1.18338 11.9009 0.856292C11.5739 0.529317 11.0437 0.529317 10.7166 0.856292L9.31586 2.25705V0.837315C9.31591 0.374881 8.94103 0 8.4786 0C8.01616 0 7.64128 0.374881 7.64128 0.837315V2.25699L6.24063 0.856346C5.91366 0.529372 5.38347 0.529372 5.05638 0.856346C4.72941 1.18332 4.72941 1.71351 5.05638 2.0406L7.18853 4.17274H6.69716C5.31576 4.17274 4.03138 4.79371 3.17345 5.87636C2.31546 6.959 2.00446 8.35122 2.31929 9.69286L6.30779 26.9964C6.39704 27.3838 6.74179 27.6458 7.12301 27.6458C7.1853 27.6458 7.24863 27.6388 7.31185 27.6242C7.76247 27.5203 8.04356 27.0709 7.93976 26.6202L6.1545 18.8747H7.81382C8.27625 18.8747 8.65113 18.4999 8.65113 18.0374C8.65113 17.575 8.27625 17.2001 7.81382 17.2001H5.76841L4.85453 13.2352H7.81371C8.27614 13.2352 8.65103 12.8603 8.65103 12.3979C8.65103 11.9354 8.27614 11.5605 7.81371 11.5605H4.46855L3.95055 9.31323C3.75253 8.46929 3.9476 7.59561 4.4861 6.91629C5.0245 6.23685 5.83053 5.84721 6.69738 5.84721H10.2601C11.127 5.84721 11.933 6.2368 12.4714 6.91623C13.0098 7.59561 13.2049 8.46929 13.0069 9.31323C12.9013 9.76336 13.1806 10.214 13.6308 10.3197C14.0809 10.4255 14.5316 10.146 14.6372 9.69582C14.9528 8.35117 14.6418 6.95894 13.7838 5.87625Z" fill="#FD6F3B"/>
<path d="M24.994 13.1704C24.3435 12.4063 23.4016 11.9679 22.41 11.9679C22.091 11.9679 21.7712 12.0136 21.4592 12.1036L18.4443 12.9735V10.0063C18.4443 9.54383 18.0695 9.16895 17.607 9.16895C17.1446 9.16895 16.7697 9.54383 16.7697 10.0063V12.9736L13.7549 12.1037C13.4429 12.0137 13.123 11.9681 12.8042 11.9681C11.8124 11.9681 10.8704 12.4063 10.2201 13.1705C9.5784 13.9243 9.29999 14.9186 9.45514 15.9003L10.6879 25.1196C10.6889 25.1272 10.69 25.1349 10.6913 25.1424C10.9593 26.7982 12.3706 28.0001 14.0472 28.0001C14.5077 28.0001 14.9584 27.907 15.3868 27.7233L17.6072 26.7708L19.8277 27.7233C20.256 27.907 20.7067 28.0001 21.1672 28.0003C21.1673 28.0003 21.1674 28.0003 21.1675 28.0003C22.844 28.0003 24.2552 26.7983 24.5231 25.1424C24.5244 25.1348 24.5255 25.1272 24.5265 25.1196L25.7593 15.9003C25.9142 14.9186 25.6357 13.9243 24.994 13.1704ZM24.1039 15.6449C24.1026 15.6525 24.1015 15.6601 24.1005 15.6677L22.868 24.885C22.7279 25.7203 22.0142 26.3255 21.1672 26.3255H21.1671C20.9347 26.3255 20.7061 26.2779 20.4876 26.1841L17.9371 25.09C17.8316 25.0448 17.7193 25.0222 17.607 25.0222C17.4947 25.0222 17.3822 25.0448 17.2769 25.09L14.7265 26.1841C14.5078 26.2779 14.2793 26.3255 14.047 26.3255C13.1999 26.3255 12.4861 25.7202 12.346 24.885L11.1135 15.6677C11.1125 15.6601 11.1114 15.6524 11.1101 15.6449C11.028 15.1373 11.1647 14.644 11.4952 14.2558C11.827 13.8661 12.304 13.6426 12.8041 13.6426C12.966 13.6426 13.1296 13.6661 13.2906 13.7126L16.7045 14.6976C16.9837 14.8097 17.2811 14.8671 17.5791 14.8704C17.5885 14.8707 17.5976 14.8718 17.6071 14.8718C17.6165 14.8718 17.6257 14.8707 17.6351 14.8704C17.9331 14.867 18.2305 14.8097 18.5097 14.6976L21.9236 13.7126C22.0846 13.6661 22.2482 13.6426 22.4101 13.6426C22.9102 13.6426 23.3872 13.8661 23.719 14.2558C24.0492 14.6441 24.186 15.1374 24.1039 15.6449Z" fill="#B3404A"/>
</g>
<defs>
<clipPath id="clip0_4495_11589">
<rect width="28" height="28" fill="white"/>
</clipPath>
</defs>
</svg>
